<svg xmlns="http://www.w3.org/2000/svg" xmlns:xlink="http://www.w3.org/1999/xlink" width="455" height="405" viewBox="0 0 455 405"><defs><style>.a,.e{fill:#fff;}.a{stroke:#707070;}.b,.d,.f,.g{fill:none;}.c{clip-path:url(#a);}.d{stroke:#fff;opacity:0.191;}.f,.g{stroke:#5996f7;stroke-miterlimit:10;}.g{stroke-width:2px;}.h,.i,.j,.m{fill:#0f1423;}.i{opacity:0.37;}.j{opacity:0.09;}.k{fill:#5996f7;}.l{clip-path:url(#b);}.m{opacity:0.14;}.n{fill:url(#c);}.o{fill:url(#d);}</style><clipPath id="a"><rect class="a" width="455" height="405" transform="translate(93 113)"/></clipPath><clipPath id="b"><rect class="b" width="139.312" height="180.752" transform="translate(57.372 0) rotate(18.506)"/></clipPath><linearGradient id="c" x1="0.128" y1="0.666" x2="1.119" y2="0.666" gradientUnits="objectBoundingBox"><stop offset="0" stop-color="#7feabc"/><stop offset="1" stop-color="#5fcea1"/></linearGradient><linearGradient id="d" x1="0.131" y1="0.668" x2="1.122" y2="0.668" xlink:href="#c"/></defs><g class="c" transform="translate(-93 -113)"><g transform="translate(-4 12)"><g transform="translate(66.531 22)"><path class="d" d="M381.159,432.39s43.443-37.969,219.2-36.451S795.483,282.8,795.483,282.8" transform="translate(-355 -204)"/><path class="d" d="M0,149.585s43.443-37.969,219.2-36.451S414.324,0,414.324,0" transform="translate(130.215 212.301) rotate(34)"/></g><g transform="translate(-2548.468 1095.167)"><g transform="translate(2749.468 -916.167)"><g transform="translate(0 18.331)"><path class="e" d="M2822.168-670.631l-23.289-40.128-47.793-70.255c-4.478-4.773,1.152-12.148,6.936-9.087l32.522,32.905a3.561,3.561,0,0,0,4.715-4.987L2772.9-817.177c-3.515-5.828,4.154-11.894,9.016-7.134l33.628,46.259a3.561,3.561,0,0,0,5.953-3.379l-17.63-84.722c-1.6-6.617,7.548-10.09,10.748-4.083l32.406,74.395a3.561,3.561,0,0,0,6.7-1.47l4.431-71.156c.385-6.673,9.894-7.5,11.426-.995l24.875,99.992,8.326,42.174a39.187,39.187,0,0,1-1.619,20.985L2887-667.393a27.292,27.292,0,0,1-20.361,17.445l-.55.109C2848.585-646.384,2830.982-655.119,2822.168-670.631Z" transform="translate(-2749.468 873.929)"/><path class="f" d="M2929.011-387.061" transform="translate(-2851.091 598.359)"/><path class="f" d="M2864.187-498.665" transform="translate(-2814.4 661.527)"/><path class="f" d="M2921.642-391.519" transform="translate(-2846.92 600.882)"/><path class="e" d="M3046.725-471.354,3031.9-526.616l-70.087,35.044s-5.391,28.3,5.391,37.739c0,1.263,6.74,22.914,6.74,22.914" transform="translate(-2868.892 677.348)"/><path class="g" d="M3100.218-793.7" transform="translate(-2947.995 828.521)"/><path class="h" d="M2991.431-588.013" transform="translate(-2886.421 712.099)"/><path class="i" d="M3036.264-480.252a23.685,23.685,0,0,1-3.848-.319c-5.215-.858-13.509-4.021-23.4-14.215a85.846,85.846,0,0,1-9.679-11.942l.365-.234c.147.23,14.917,23.022,32.79,25.963,6.7,1.1,13.051-.707,18.882-5.379l.271.339A24.263,24.263,0,0,1,3036.264-480.252Z" transform="translate(-2890.893 666.224)"/><path class="i" d="M2852.505-636.738a63.546,63.546,0,0,1-8.305-.458l.065-.429a87.928,87.928,0,0,0,31.368-2.475,86.368,86.368,0,0,0,28.062-12.8,91.512,91.512,0,0,0,26.432-29.131l.375.22a91.951,91.951,0,0,1-26.567,29.273,86.8,86.8,0,0,1-28.21,12.859A94.3,94.3,0,0,1,2852.505-636.738Z" transform="translate(-2803.087 765.312)"/><path class="e" d="M2976-403.545l3.245,19.143a4.7,4.7,0,0,0,6.862,3.346l80.164-43.321L3048.043-440Z" transform="translate(-2877.687 628.322)"/></g><path class="j" d="M2935.908-469.247l-4.176-2.314,23.833-43.016c3.42-5.99,7.087-11.907,10.632-17.628l.175-.282a22.927,22.927,0,0,0,3.471-9.847l.007-.108c.41-4.612-.461-7.778-2.589-9.41-3.5-2.687-10.165-1.12-12.437-.29l-43.8,15.586c-3.012,1.119-5.463,1-7.25-.355-2.53-1.923-2.315-5.355-2.282-5.74l4.756.405-2.378-.2,2.38.178a2.265,2.265,0,0,0,.416,1.561c.227.168,1.056.287,2.727-.333l43.8-15.589c.406-.15,10.636-3.848,16.953.981,3.512,2.684,5.011,7.255,4.457,13.586a27.463,27.463,0,0,1-4.18,12.091l-.174.282c-3.523,5.685-7.167,11.564-10.529,17.453Z" transform="translate(-2835.506 713.513)"/><g transform="translate(9.6)"><path class="k" d="M3146.777-741,3119-693.567l74.832,23.252s23.489-16.686,22.244-30.96l10.988-21.063" transform="translate(-2968.227 817.021)"/><g transform="translate(79.58 98.035)"><path class="k" d="M3122.062-641.55l-8.246,65.533-11.271,64.627c-.075,6.544-9.243,7.966-11.3,1.752l-.677-46.26a3.561,3.561,0,0,0-6.855.332L3061.768-500.4c-1.5,6.638-11.234,5.7-11.445-1.1l7.773-56.66a3.561,3.561,0,0,0-6.635-1.684l-45.948,73.331c-3.431,5.878-12.433,2.052-10.581-4.5l28.136-76.112a3.561,3.561,0,0,0-5.85-3.578l-52.471,48.267c-4.9,4.547-12.332-1.44-8.932-7.2l51.3-89.363,23.2-36.193a39.178,39.178,0,0,1,15.7-14.018l37.162-18.272a27.292,27.292,0,0,1,26.77,1.515l.472.3C3125.434-676.033,3126.446-658.844,3122.062-641.55Z" transform="translate(-2954.954 690.278)"/></g><g class="l"><path class="k" d="M3040.918-581.044l53.135-133.838a36.96,36.96,0,0,0-20.649-47.965l-32.03-12.786-4.97,13.37a13.958,13.958,0,0,1-7.934,7.845l-10.831,4.183a96.4,96.4,0,0,0-21.957,11.956l-90.41,65.739a6.008,6.008,0,0,0,1.936,10.651h0a6.007,6.007,0,0,0,3.605-.129l45.627-16.178c11.692-4.146,19.024,1.764,18.352,12.073a21.1,21.1,0,0,1-2.7,8.893l-46.318,82.91c-.579,1.762,17.618,29.9,18.351,31.606h0a7.042,7.042,0,0,0,.368.737,6,6,0,0,0,10.225.051,32.982,32.982,0,0,0,1.82-3.147l32.568-77.247a1.475,1.475,0,0,1,2.773,1l-30.163,93.074a6.406,6.406,0,0,0-.121,4.081h0a6.4,6.4,0,0,0,9.286,3.707h0a6.4,6.4,0,0,0,2.722-3.041l36.134-84.106a1.724,1.724,0,0,1,3.239,1.165l-19.707,67.3a4.835,4.835,0,0,0,1.075,4.7,6.138,6.138,0,0,0,.6.549c3.377,2.693,7.563,1.4,9.111-2.637l24.44-63.7a2.292,2.292,0,0,1,4.383,1.288L3027.5-573.1h0a4.213,4.213,0,0,0,7.576,2.431h0A44.844,44.844,0,0,0,3040.918-581.044Z" transform="translate(-2845.852 836.623)"/></g><path class="k" d="M3167-741.838l8.778-13.191a6.114,6.114,0,0,1,7.584-3.2l53.591,18.893a20.334,20.334,0,0,1,11.795,27.5l-3.629,4.386Z" transform="translate(-2995.394 826.973)"/></g><path class="e" d="M3111.261-412.645" transform="translate(-2954.245 631.17)"/><path class="m" d="M2983-371.28l48.5-43.562s3.583-5.48,7.055-.706" transform="translate(-2881.649 633.919)"/><g transform="translate(32.351 41.463)"><path class="e" d="M2884.787-257.5c-9.352,1.884-17.471.418-24.133-4.357-13.778-9.875-16.544-30.188-16.655-31.048l1.291-.167c.026.205,2.811,20.621,16.127,30.16,6.355,4.553,14.132,5.944,23.112,4.136Z" transform="translate(-2835.324 522.028)"/><path class="e" d="M2864.8-228.959c-9.352,1.883-17.471.417-24.133-4.357-13.779-9.875-16.545-30.188-16.656-31.048l1.291-.167c.027.205,2.812,20.621,16.128,30.16,6.355,4.553,14.131,5.944,23.112,4.136Z" transform="translate(-2824.011 505.874)"/><path class="n" d="M3383.48-755.7c-.027-.205-2.778-20.626-16.078-30.187-6.348-4.563-14.122-5.967-23.105-4.174l-.255-1.277c9.355-1.867,17.473-.388,24.126,4.4,13.762,9.9,16.494,30.216,16.6,31.075Z" transform="translate(-3118.352 804.493)"/><path class="o" d="M3403.515-784.209c-.026-.205-2.777-20.626-16.078-30.187-6.348-4.563-14.123-5.968-23.105-4.174l-.255-1.277c9.355-1.867,17.471-.388,24.126,4.4,13.761,9.9,16.494,30.215,16.6,31.076Z" transform="translate(-3129.692 820.628)"/></g><path class="k" d="M3161.327-727.914s-2.562,5.08-7.12,6.861,8.027,3.083,8.027,3.083Z" transform="translate(-2977.989 809.615)"/></g><path class="k" d="M3321-588.878,3325.34-713l16.058,6.51" transform="translate(-323.491 -114.994)"/></g></g></g></svg>