<svg xmlns="http://www.w3.org/2000/svg" width="501" height="234" viewBox="0 0 501 234"><defs><style>.a,.b,.f{fill:#2cdea3;}.a{opacity:0.477;}.b{opacity:0.292;}.c{opacity:0.299;}.d{fill:#5996f7;}.e{fill:#bbd7ff;}.f{opacity:0.489;}.g{fill:none;stroke:#5996f7;opacity:0.137;}</style></defs><circle class="a" cx="4" cy="4" r="4" transform="translate(86 226)"/><ellipse class="b" cx="4.5" cy="4" rx="4.5" ry="4" transform="translate(401 226)"/><g transform="translate(0 0)"><g transform="translate(164.408 68.874)"><g class="c"><rect class="d" width="173" height="127" rx="9" transform="translate(-0.408 0.126)"/><rect class="e" width="159" height="111" rx="11" transform="translate(6.592 8.126)"/><rect class="d" width="49" height="22" transform="translate(61.592 122.126)"/><rect class="d" width="80.795" height="11.077" rx="2" transform="translate(45.825 139.301)"/></g></g><ellipse class="f" cx="4.5" cy="4" rx="4.5" ry="4" transform="translate(52 36)"/><ellipse class="f" cx="4.5" cy="4" rx="4.5" ry="4" transform="translate(0 136)"/><ellipse class="f" cx="4" cy="4.5" rx="4" ry="4.5" transform="translate(246)"/><circle class="f" cx="4.5" cy="4.5" r="4.5" transform="translate(492 131)"/><circle class="f" cx="4.5" cy="4.5" r="4.5" transform="translate(415 27)"/><path class="g" d="M3924,823.6s5.646-49.076,60.073-67.762,71.014-61.541,51.1-121.008" transform="translate(-3919.557 -620.578)"/><path class="g" d="M3924,634.826s5.646,49.076,60.073,67.762,71.014,61.541,51.1,121.008" transform="translate(-3574.078 -599.472)"/></g></svg>