<svg width="82" height="101" viewBox="0 0 82 101" fill="none" xmlns="http://www.w3.org/2000/svg">
<g clip-path="url(#clip0)">
<path d="M1.77499 78.304L6.01599 75.538C6.35307 75.318 6.6402 75.0297 6.8588 74.6917C7.0774 74.3538 7.2226 73.9736 7.285 73.576C8.485 65.876 10.746 52.557 12.351 49.947L14.634 46.314C15.4887 44.9543 16.1209 43.4669 16.507 41.908C14.213 43.926 13.163 45.046 12.061 47.923C12.0154 48.0552 11.9438 48.1769 11.8502 48.2808C11.7567 48.3847 11.6431 48.4687 11.5164 48.5278C11.3897 48.5869 11.2524 48.6199 11.1127 48.6249C10.973 48.6298 10.8337 48.6066 10.7031 48.5566C10.5726 48.5066 10.4534 48.4308 10.3527 48.3338C10.2521 48.2368 10.1719 48.1205 10.1172 47.9918C10.0624 47.8632 10.034 47.7248 10.0338 47.585C10.0336 47.4452 10.0616 47.3068 10.116 47.178C10.5842 45.8674 11.2346 44.6293 12.048 43.5C12.285 40.41 11.148 32.4 9.38899 28.651C8.60099 26.97 6.43199 24.999 4.70899 24.877C4.40361 24.8439 4.09522 24.9011 3.82202 25.0415C3.54882 25.1819 3.32282 25.3994 3.172 25.667C2.847 26.167 3.14099 27.42 3.51299 29.012L3.61299 29.433C3.61899 29.457 3.62299 29.482 3.62699 29.507L4.41699 34.537C4.77211 36.7831 4.6783 39.0774 4.14099 41.287L3.13 45.449C2.7 47.303 3.74399 56.191 5.85799 68.632C5.97129 69.3012 5.94634 69.9866 5.78468 70.6458C5.62301 71.305 5.32806 71.9241 4.91799 72.465L1.77499 78.304Z" fill="#0F1423"/>
<path d="M25.893 50.56C26.293 50.382 26.706 50.202 27.157 50.012C29.1641 49.2085 31.0935 48.2231 32.921 47.068L47.421 37.429L53.646 27.615C53.9724 27.1103 54.0914 26.499 53.9782 25.9086C53.865 25.3183 53.5283 24.7944 53.0383 24.4463C52.5482 24.0981 51.9428 23.9525 51.348 24.0398C50.7533 24.1272 50.2152 24.4407 49.846 24.915L36.609 43.671C36.5338 43.791 36.4349 43.8945 36.3183 43.975C36.2018 44.0555 36.0701 44.1114 35.9312 44.1393C35.7923 44.1672 35.6492 44.1664 35.5106 44.1372C35.372 44.1079 35.2409 44.0506 35.1252 43.969C35.0094 43.8873 34.9116 43.7829 34.8376 43.6621C34.7636 43.5413 34.715 43.4067 34.6947 43.2665C34.6745 43.1263 34.6831 42.9834 34.7199 42.8467C34.7568 42.7099 34.8211 42.5821 34.909 42.471L48.053 23.848C48.061 23.836 48.065 23.823 48.074 23.812C48.095 23.782 48.119 23.756 48.14 23.726L52.892 16.993C53.2898 16.4475 53.4546 15.7662 53.3502 15.0991C53.2457 14.4321 52.8806 13.8338 52.335 13.436C51.7895 13.0382 51.1082 12.8734 50.4411 12.9778C49.7741 13.0823 49.1758 13.4475 48.778 13.993L46.657 16.807C46.567 16.9795 46.4668 17.1464 46.357 17.307L30.457 39.97C30.3818 40.09 30.2829 40.1935 30.1664 40.274C30.0498 40.3545 29.9181 40.4104 29.7792 40.4383C29.6403 40.4662 29.4972 40.4655 29.3586 40.4362C29.22 40.4069 29.0889 40.3496 28.9732 40.268C28.8574 40.1863 28.7596 40.0818 28.6856 39.9611C28.6116 39.8403 28.563 39.7057 28.5427 39.5655C28.5225 39.4253 28.5311 39.2825 28.5679 39.1457C28.6048 39.0089 28.6691 38.8811 28.757 38.77L44.631 16.138C44.6651 16.0303 44.7168 15.9289 44.784 15.838L44.899 15.685C45.1946 15.0601 45.2493 14.3481 45.0526 13.6854C44.8559 13.0227 44.4217 12.4558 43.8331 12.0933C43.2444 11.7309 42.5428 11.5982 41.8625 11.7209C41.1822 11.8435 40.571 12.2128 40.146 12.758L25.267 31.932C26.4364 33.3485 27.1953 35.0585 27.461 36.876C27.885 40.56 26.954 46.703 25.893 50.56Z" fill="#0F1423"/>
<path d="M69.286 35.369C68.9569 35.3051 68.6183 35.3076 68.2901 35.3762C67.962 35.4449 67.6509 35.5785 67.375 35.769L64.469 37.762C64.3285 37.8953 64.1802 38.0202 64.025 38.136L39.833 55.912C39.7229 55.9958 39.5973 56.0569 39.4634 56.0916C39.3295 56.1263 39.19 56.1341 39.0531 56.1144C38.9162 56.0946 38.7846 56.0478 38.6659 55.9767C38.5473 55.9056 38.444 55.8116 38.3621 55.7001C38.2802 55.5886 38.2213 55.462 38.1888 55.3275C38.1563 55.193 38.151 55.0535 38.173 54.9169C38.1951 54.7803 38.2441 54.6495 38.3172 54.5321C38.3904 54.4147 38.4862 54.313 38.599 54.233L62.76 36.483C62.8267 36.3912 62.9081 36.3111 63.001 36.246L63.159 36.137C63.6379 35.6382 63.9161 34.9803 63.9404 34.2892C63.9646 33.5981 63.7332 32.9224 63.2903 32.3913C62.8475 31.8601 62.2243 31.511 61.5402 31.4106C60.856 31.3101 60.1588 31.4655 59.582 31.847L34.075 48.806C32.1378 50.0342 30.0918 51.0819 27.963 51.936C25.122 53.128 23.77 53.851 21.802 56.236C21.6244 56.4429 21.3727 56.572 21.101 56.5954C20.8293 56.6189 20.5592 56.5349 20.3487 56.3614C20.1383 56.188 20.0042 55.939 19.9752 55.6678C19.9463 55.3966 20.0249 55.1249 20.194 54.911C21.0641 53.8042 22.0882 52.8276 23.235 52.011C24.435 49.139 25.866 41.238 25.389 37.111C25.175 35.266 23.745 32.706 22.149 32.041C21.8705 31.9125 21.5604 31.8685 21.2571 31.9145C20.9539 31.9606 20.6708 32.0946 20.443 32.3C19.978 32.666 19.857 33.952 19.704 35.579L19.663 36.009C19.663 36.034 19.657 36.059 19.653 36.083L18.804 41.104C18.4269 43.3468 17.6088 45.4925 16.397 47.417L14.12 51.042C13.12 52.664 11.29 61.423 9.34299 73.893C9.23536 74.5791 8.98491 75.235 8.60784 75.8183C8.23077 76.4016 7.73548 76.8992 7.154 77.279L0 81.943L14.321 100.264L27.321 89.497C27.706 89.178 28.069 88.83 28.404 88.497C29.4584 87.4565 30.7287 86.6607 32.125 86.166C35.125 85.097 40.956 81.358 48.305 74.066C51.273 71.122 54.22 68.536 57.069 66.036L62.906 60.983C63.623 60.3654 64.1143 59.5269 64.3026 58.5994C64.4909 57.672 64.3654 56.7083 63.946 55.86L46.746 69.592C46.6396 69.6814 46.5163 69.7486 46.3835 69.7897C46.2507 69.8307 46.111 69.8448 45.9727 69.831C45.8343 69.8172 45.7001 69.776 45.578 69.7095C45.4559 69.6431 45.3483 69.553 45.2616 69.4443C45.1748 69.3357 45.1107 69.2108 45.0729 69.077C45.0352 68.9432 45.0246 68.8032 45.0418 68.6653C45.059 68.5273 45.1036 68.3942 45.173 68.2738C45.2424 68.1534 45.3353 68.048 45.446 67.964L67.681 50.214C68.132 49.8542 68.4338 49.3402 68.5283 48.7711C68.6227 48.202 68.5032 47.618 68.1926 47.1318C67.8821 46.6456 67.4025 46.2916 66.8464 46.138C66.2903 45.9844 65.6971 46.0421 65.181 46.3L44.41 61.642C44.3002 61.7263 44.1746 61.7878 44.0408 61.823C43.9069 61.8582 43.7673 61.8664 43.6302 61.8471C43.4932 61.8277 43.3613 61.7813 43.2424 61.7104C43.1235 61.6396 43.0199 61.5457 42.9376 61.4344C42.8554 61.323 42.7961 61.1964 42.7634 61.0619C42.7306 60.9274 42.725 60.7877 42.7468 60.651C42.7686 60.5143 42.8174 60.3833 42.8904 60.2657C42.9635 60.1481 43.0592 60.0462 43.172 59.966L63.413 45.016C63.4659 44.9498 63.5267 44.8904 63.594 44.839C63.7404 44.7298 63.8934 44.6296 64.052 44.539L70.323 39.907C70.7219 39.6127 71.0264 39.2085 71.1991 38.7439C71.3718 38.2792 71.4053 37.7743 71.2954 37.2909C71.1856 36.8076 70.9372 36.3667 70.5807 36.0223C70.2241 35.6779 69.7749 35.445 69.288 35.352L69.286 35.369Z" fill="#5996F7"/>
<path d="M60.586 14.855C60.7084 14.9166 60.8417 14.9534 60.9783 14.9634C61.1149 14.9734 61.2522 14.9564 61.3822 14.9133C61.5122 14.8702 61.6325 14.8019 61.7361 14.7123C61.8397 14.6227 61.9246 14.5135 61.986 14.391L68.445 1.51001C68.5111 1.38729 68.5519 1.25255 68.5649 1.11379C68.578 0.975021 68.5631 0.83504 68.5212 0.70213C68.4792 0.569221 68.411 0.446086 68.3205 0.340013C68.2301 0.23394 68.1193 0.147085 67.9948 0.0845911C67.8702 0.022097 67.7343 -0.0147659 67.5952 -0.0238169C67.4561 -0.0328678 67.3166 -0.013923 67.185 0.0318977C67.0534 0.0777185 66.9323 0.149483 66.8289 0.242943C66.7255 0.336403 66.6419 0.44966 66.583 0.576007L60.121 13.456C60.0594 13.5784 60.0226 13.7117 60.0126 13.8483C60.0026 13.9849 60.0196 14.1222 60.0627 14.2522C60.1058 14.3823 60.1741 14.5025 60.2637 14.6061C60.3534 14.7097 60.4625 14.7946 60.585 14.856L60.586 14.855Z" fill="#5996F7"/>
<path d="M63.522 18.449C63.6644 18.6856 63.8949 18.8559 64.1628 18.9227C64.4308 18.9894 64.7143 18.9471 64.951 18.805L78.641 10.579C78.8781 10.4367 79.049 10.2061 79.116 9.9378C79.1831 9.66953 79.1408 9.38561 78.9985 9.14851C78.8562 8.9114 78.6256 8.74054 78.3573 8.67349C78.089 8.60645 77.8051 8.64872 77.568 8.79101L63.878 17.017C63.6414 17.1594 63.4711 17.3899 63.4043 17.6578C63.3376 17.9258 63.3799 18.2093 63.522 18.446V18.449Z" fill="#5996F7"/>
<path d="M80.571 21.292H80.564L66.543 21.438C66.4035 21.4345 66.2648 21.459 66.135 21.5101C66.0051 21.5612 65.8869 21.6379 65.7873 21.7356C65.6876 21.8332 65.6086 21.9499 65.5549 22.0787C65.5013 22.2074 65.474 22.3457 65.4747 22.4852C65.4755 22.6247 65.5042 22.7626 65.5592 22.8908C65.6143 23.019 65.6945 23.1349 65.7952 23.2315C65.8958 23.3281 66.0149 23.4035 66.1452 23.4532C66.2756 23.5029 66.4146 23.526 66.554 23.521H66.565L80.586 23.375C80.7255 23.3785 80.8642 23.354 80.994 23.3029C81.1238 23.2518 81.2421 23.1751 81.3417 23.0775C81.4414 22.9798 81.5204 22.8631 81.5741 22.7344C81.6277 22.6056 81.655 22.4674 81.6543 22.3278C81.6535 22.1883 81.6248 22.0504 81.5697 21.9222C81.5147 21.794 81.4345 21.6782 81.3338 21.5816C81.2332 21.485 81.1141 21.4095 80.9838 21.3598C80.8534 21.3101 80.7144 21.287 80.575 21.292H80.571Z" fill="#5996F7"/>
</g>
<defs>
<clipPath id="clip0">
<rect width="81.618" height="100.269" fill="white"/>
</clipPath>
</defs>
</svg>
