<svg xmlns="http://www.w3.org/2000/svg" width="162.542" height="50.164" viewBox="0 0 162.542 50.164">
  <g id="Group_207" data-name="Group 207" transform="translate(-2414.458 -2316)">
    <g id="Group_114" data-name="Group 114" transform="translate(2468.008 2316)">
      <g id="Group_113" data-name="Group 113">
        <g id="Group_111" data-name="Group 111">
          <path id="Path_88" data-name="Path 88" d="M387.885,236.155a2.4,2.4,0,0,1-.854-.173,2.134,2.134,0,0,1-.741-.44A.849.849,0,0,1,386,234.9a1.678,1.678,0,0,1,.029-.255l5.674-18.475a1.286,1.286,0,0,1,.724-.77,2.8,2.8,0,0,1,1.184-.255,2.843,2.843,0,0,1,1.211.255,1.287,1.287,0,0,1,.729.77l5.643,18.475a.893.893,0,0,1,.058.255.862.862,0,0,1-.3.628,2.216,2.216,0,0,1-.741.455,2.379,2.379,0,0,1-.871.173,1.331,1.331,0,0,1-.64-.144.8.8,0,0,1-.385-.484l-1.17-4.048h-7.07l-1.141,4.048a.688.688,0,0,1-.385.484A1.516,1.516,0,0,1,387.885,236.155Zm2.878-7.1h5.7l-2.852-9.78Z" transform="translate(-386.003 -214.6)" fill="#fff"/>
          <path id="Path_89" data-name="Path 89" d="M398.088,235.39a5.638,5.638,0,0,1-3.706-1.071,4.156,4.156,0,0,1-1.283-3.379V216.658a.8.8,0,0,1,.469-.7,2.005,2.005,0,0,1,1.013-.272,2.084,2.084,0,0,1,1.028.272.8.8,0,0,1,.484.7v5.217h3.477a.685.685,0,0,1,.614.342,1.492,1.492,0,0,1,0,1.54.68.68,0,0,1-.614.342h-3.477v6.842a1.98,1.98,0,0,0,.44,1.456,2.229,2.229,0,0,0,1.555.426h.97a1.23,1.23,0,0,1,.984.385,1.375,1.375,0,0,1,0,1.781,1.2,1.2,0,0,1-.984.4Z" transform="translate(-376.022 -213.835)" fill="#fff"/>
          <path id="Path_90" data-name="Path 90" d="M403.29,232.1a7.8,7.8,0,0,1-3.422-.712,5.768,5.768,0,0,1-2.337-1.981,5.2,5.2,0,0,1-.854-2.979v-2.71a4.988,4.988,0,0,1,.811-2.765,6.064,6.064,0,0,1,2.154-2.009,6.226,6.226,0,0,1,5.785-.084,5.405,5.405,0,0,1,2.067,1.867,4.859,4.859,0,0,1,.785,2.736,3.005,3.005,0,0,1-.371,1.711,1.505,1.505,0,0,1-.97.626,6.6,6.6,0,0,1-1.254.113h-6.016v.657a2.759,2.759,0,0,0,1.042,2.267,4.1,4.1,0,0,0,2.664.84,3.961,3.961,0,0,0,1.627-.284,10.476,10.476,0,0,0,1.054-.541,1.569,1.569,0,0,1,.8-.258.922.922,0,0,1,.628.229,1.645,1.645,0,0,1,.4.542,1.091,1.091,0,0,1-.443,1.511,4.738,4.738,0,0,1-1.639.869A7.836,7.836,0,0,1,403.29,232.1Zm-3.622-8.04H404.4a1.443,1.443,0,0,0,.84-.169.849.849,0,0,0,.214-.686,2.7,2.7,0,0,0-.371-1.381,2.606,2.606,0,0,0-1.025-1,3.268,3.268,0,0,0-2.938-.014,2.821,2.821,0,0,0-1.054.941,2.47,2.47,0,0,0-.4,1.4Z" transform="translate(-370.99 -210.319)" fill="#fff"/>
          <path id="Path_91" data-name="Path 91" d="M404,231.874a1.726,1.726,0,0,1-1.071-.315.873.873,0,0,1-.411-.683V219.329a.808.808,0,0,1,.411-.7,1.926,1.926,0,0,1,1.071-.272,1.639,1.639,0,0,1,.941.272.813.813,0,0,1,.4.7v1.025a4.26,4.26,0,0,1,3.822-2.166,4.344,4.344,0,0,1,2.467.756,5.582,5.582,0,0,1,1.81,2.024,5.874,5.874,0,0,1,.684,2.837v7.07a.807.807,0,0,1-.469.741,2.143,2.143,0,0,1-1.042.258,2.1,2.1,0,0,1-1-.258.807.807,0,0,1-.486-.741V223.8a2.877,2.877,0,0,0-.383-1.425,3.142,3.142,0,0,0-1.042-1.112,2.639,2.639,0,0,0-2.765-.072,2.825,2.825,0,0,0-1.025,1.011,3.018,3.018,0,0,0-.4,1.6v7.07a.867.867,0,0,1-.443.683A1.793,1.793,0,0,1,404,231.874Z" transform="translate(-362.775 -210.319)" fill="#fff"/>
          <path id="Path_92" data-name="Path 92" d="M413.387,236.7a4.241,4.241,0,0,1-2.481-.8,5.974,5.974,0,0,1-1.839-2.1,5.79,5.79,0,0,1-.7-2.78V228.4a5.8,5.8,0,0,1,.7-2.837,5.657,5.657,0,0,1,1.839-2.024,4.506,4.506,0,0,1,2.539-.756,3.866,3.866,0,0,1,2.308.671,4.582,4.582,0,0,1,1.4,1.494v-9.065a.8.8,0,0,1,.455-.7,2.079,2.079,0,0,1,1.083-.272,1.868,1.868,0,0,1,1.042.272.813.813,0,0,1,.414.7v19.587a.876.876,0,0,1-.414.683,1.677,1.677,0,0,1-1.042.315,1.528,1.528,0,0,1-.953-.315.869.869,0,0,1-.414-.683v-1a3.869,3.869,0,0,1-1.511,1.555A4.526,4.526,0,0,1,413.387,236.7Zm.857-2.65a2.536,2.536,0,0,0,1.48-.457,4.031,4.031,0,0,0,1.042-1.013,1.754,1.754,0,0,0,.385-.9V228.4a2.879,2.879,0,0,0-.428-1.6,3,3,0,0,0-1.083-1.011,2.823,2.823,0,0,0-1.369-.356,2.662,2.662,0,0,0-1.468.428,3.07,3.07,0,0,0-1.054,1.112,2.855,2.855,0,0,0-.385,1.425v2.623a3.015,3.015,0,0,0,.385,1.454,3.066,3.066,0,0,0,1.04,1.141A2.619,2.619,0,0,0,414.243,234.05Z" transform="translate(-354.544 -214.918)" fill="#fff"/>
          <path id="Path_93" data-name="Path 93" d="M420.208,232.1a5.531,5.531,0,0,1-2.881-.8,6.315,6.315,0,0,1-2.151-2.1,5.149,5.149,0,0,1-.813-2.78V223.8a5.264,5.264,0,0,1,.784-2.794,5.817,5.817,0,0,1,2.137-2.053,6.064,6.064,0,0,1,5.889-.014,6.032,6.032,0,0,1,2.151,2.024,5.159,5.159,0,0,1,.813,2.837v2.623a5.168,5.168,0,0,1-.813,2.765,6.21,6.21,0,0,1-2.166,2.11A5.708,5.708,0,0,1,420.208,232.1Zm.029-2.65a2.622,2.622,0,0,0,1.454-.428,3.266,3.266,0,0,0,1.054-1.126,2.91,2.91,0,0,0,.4-1.468V223.8a2.776,2.776,0,0,0-.4-1.425,3.286,3.286,0,0,0-1.054-1.112,2.709,2.709,0,0,0-2.924,0,3.2,3.2,0,0,0-1.025,1.112,2.855,2.855,0,0,0-.385,1.425v2.623a2.994,2.994,0,0,0,.385,1.468,3.14,3.14,0,0,0,1.04,1.126A2.624,2.624,0,0,0,420.237,229.451Z" transform="translate(-346.114 -210.319)" fill="#fff"/>
        </g>
        <g id="Group_112" data-name="Group 112" transform="translate(0.462 28.383)">
          <path id="Path_94" data-name="Path 94" d="M392.808,243.894a7.8,7.8,0,0,1-3.422-.712,5.769,5.769,0,0,1-2.337-1.981,5.2,5.2,0,0,1-.854-2.979v-2.71a4.988,4.988,0,0,1,.811-2.765,6.064,6.064,0,0,1,2.154-2.009,5.933,5.933,0,0,1,2.965-.756,6,6,0,0,1,2.823.671,5.416,5.416,0,0,1,2.065,1.867,4.86,4.86,0,0,1,.784,2.736,3.005,3.005,0,0,1-.371,1.711,1.505,1.505,0,0,1-.97.626,6.6,6.6,0,0,1-1.254.113h-6.016v.657a2.766,2.766,0,0,0,1.042,2.267,4.1,4.1,0,0,0,2.666.84,3.957,3.957,0,0,0,1.624-.284,10.463,10.463,0,0,0,1.054-.542,1.569,1.569,0,0,1,.8-.257.922.922,0,0,1,.628.229,1.611,1.611,0,0,1,.4.541,1.093,1.093,0,0,1-.44,1.511,4.772,4.772,0,0,1-1.641.869A7.836,7.836,0,0,1,392.808,243.894Zm-3.622-8.04h4.734a1.443,1.443,0,0,0,.84-.168.852.852,0,0,0,.214-.686,2.7,2.7,0,0,0-.371-1.381,2.606,2.606,0,0,0-1.025-1,3.049,3.049,0,0,0-1.482-.356,3.1,3.1,0,0,0-1.456.342,2.822,2.822,0,0,0-1.054.941,2.468,2.468,0,0,0-.4,1.4Z" transform="translate(-386.195 -222.113)" fill="#fff"/>
          <path id="Path_95" data-name="Path 95" d="M393.517,243.666a1.713,1.713,0,0,1-1.068-.313.873.873,0,0,1-.414-.683V231.123a.8.8,0,0,1,.414-.7,1.912,1.912,0,0,1,1.068-.272,1.639,1.639,0,0,1,.941.272.815.815,0,0,1,.4.7v1.025a4.9,4.9,0,0,1,1.425-1.494,3.972,3.972,0,0,1,2.366-.671,3.492,3.492,0,0,1,2.267.8,4.8,4.8,0,0,1,1.468,2.053,5.15,5.15,0,0,1,1.911-2.154,4.622,4.622,0,0,1,2.394-.7,4.726,4.726,0,0,1,2.409.655,5.058,5.058,0,0,1,1.839,1.911,6.1,6.1,0,0,1,.712,3.051v7.07a.864.864,0,0,1-.443.683,1.792,1.792,0,0,1-1.068.313,1.753,1.753,0,0,1-1.04-.313.864.864,0,0,1-.443-.683V235.6a3.226,3.226,0,0,0-.385-1.639A2.608,2.608,0,0,0,406,232.605a2.473,2.473,0,0,0-1.283.356,2.864,2.864,0,0,0-1.4,2.58V242.7a.77.77,0,0,1-.469.741,2.371,2.371,0,0,1-1.042.226,2.316,2.316,0,0,1-1-.226.767.767,0,0,1-.486-.741V235.57A3.134,3.134,0,0,0,399.96,234a2.685,2.685,0,0,0-.97-1.011,2.5,2.5,0,0,0-1.312-.356,2.553,2.553,0,0,0-1.266.342,2.658,2.658,0,0,0-1,1,3.17,3.17,0,0,0-.383,1.624v7.07a.87.87,0,0,1-.443.683A1.792,1.792,0,0,1,393.517,243.666Z" transform="translate(-377.981 -222.113)" fill="#fff"/>
          <path id="Path_96" data-name="Path 96" d="M405.283,247.847a1.75,1.75,0,0,1-.914-.255.82.82,0,0,1-.428-.741V227.979a.772.772,0,0,1,.472-.741,2.484,2.484,0,0,1,2.082,0,.769.769,0,0,1,.469.741v17.19h7.412a.735.735,0,0,1,.686.414,1.887,1.887,0,0,1,.226.927,1.919,1.919,0,0,1-.226.912.734.734,0,0,1-.686.426Z" transform="translate(-361.236 -226.294)" fill="#fff"/>
          <path id="Path_97" data-name="Path 97" d="M411.085,230.478a1.752,1.752,0,0,1-1.254-.486,1.461,1.461,0,0,1-.513-1.083,1.434,1.434,0,0,1,.513-1.112,1.825,1.825,0,0,1,1.254-.457,1.744,1.744,0,0,1,1.213.457,1.452,1.452,0,0,1,.5,1.112,1.479,1.479,0,0,1-.5,1.083A1.677,1.677,0,0,1,411.085,230.478Zm0,16.9a1.718,1.718,0,0,1-1.068-.313.879.879,0,0,1-.414-.683V234.839a.81.81,0,0,1,.414-.7,1.917,1.917,0,0,1,1.068-.272,2.017,2.017,0,0,1,1.071.272.8.8,0,0,1,.44.7v11.547a.867.867,0,0,1-.44.683A1.8,1.8,0,0,1,411.085,247.382Z" transform="translate(-353.67 -225.829)" fill="#fff"/>
          <path id="Path_98" data-name="Path 98" d="M418.741,248.493a4.443,4.443,0,0,1-2.409-.669,4.08,4.08,0,0,1-1.526-1.555v1a.886.886,0,0,1-.4.683,1.522,1.522,0,0,1-.97.313,1.676,1.676,0,0,1-1.042-.313.876.876,0,0,1-.411-.683V227.682a.81.81,0,0,1,.411-.7,1.869,1.869,0,0,1,1.042-.272,2.067,2.067,0,0,1,1.1.272.8.8,0,0,1,.443.7v9.065a4.546,4.546,0,0,1,1.4-1.494,3.823,3.823,0,0,1,2.281-.671,4.567,4.567,0,0,1,2.551.756,5.587,5.587,0,0,1,1.853,2.024,5.8,5.8,0,0,1,.7,2.837v2.623a5.79,5.79,0,0,1-.7,2.78,5.971,5.971,0,0,1-1.839,2.1A4.234,4.234,0,0,1,418.741,248.493Zm-.857-2.65a2.564,2.564,0,0,0,1.425-.428,3.214,3.214,0,0,0,1.056-1.141,2.954,2.954,0,0,0,.4-1.454V240.2a2.8,2.8,0,0,0-.4-1.425,3.271,3.271,0,0,0-1.056-1.112,2.592,2.592,0,0,0-1.454-.428,2.829,2.829,0,0,0-1.369.356A3.017,3.017,0,0,0,415.4,238.6a2.873,2.873,0,0,0-.426,1.6v3.278a1.74,1.74,0,0,0,.385.9,3.98,3.98,0,0,0,1.04,1.013A2.538,2.538,0,0,0,417.885,245.844Z" transform="translate(-349.922 -226.712)" fill="#fff"/>
          <path id="Path_99" data-name="Path 99" d="M419.422,243.666a1.671,1.671,0,0,1-1.042-.313.879.879,0,0,1-.414-.683V231.123a.81.81,0,0,1,.414-.7,1.864,1.864,0,0,1,1.042-.272,1.69,1.69,0,0,1,.97.272.813.813,0,0,1,.4.7v1.254a4.958,4.958,0,0,1,.842-1.141,4.638,4.638,0,0,1,1.239-.9,3.417,3.417,0,0,1,1.54-.356h.912a1.04,1.04,0,0,1,.8.385,1.347,1.347,0,0,1,.344.927,1.4,1.4,0,0,1-.344.941,1.018,1.018,0,0,1-.8.4h-.912a3.018,3.018,0,0,0-1.653.513,3.823,3.823,0,0,0-1.3,1.442,4.656,4.656,0,0,0-.5,2.236v5.845a.867.867,0,0,1-.44.683A1.852,1.852,0,0,1,419.422,243.666Z" transform="translate(-341.508 -222.113)" fill="#fff"/>
          <path id="Path_100" data-name="Path 100" d="M425.5,243.894a4.044,4.044,0,0,1-2.678-.926,4.144,4.144,0,0,1-.258-5.345,4.616,4.616,0,0,1,2.351-1.227,15.784,15.784,0,0,1,3.465-.342h1.254v-.513a4.005,4.005,0,0,0-.27-1.439,2.512,2.512,0,0,0-2.553-1.639,5.161,5.161,0,0,0-1.624.2,4.119,4.119,0,0,0-.912.426,1.146,1.146,0,0,1-.628.229.877.877,0,0,1-.8-.5,2,2,0,0,1-.286-1.013,1.147,1.147,0,0,1,.671-.927,5.754,5.754,0,0,1,1.668-.655,8.311,8.311,0,0,1,1.966-.243,6.306,6.306,0,0,1,3.364.785,4.656,4.656,0,0,1,1.824,2.038,6.455,6.455,0,0,1,.57,2.707v7.157a.859.859,0,0,1-.414.7,1.731,1.731,0,0,1-1.04.3,1.571,1.571,0,0,1-.97-.3.859.859,0,0,1-.4-.7v-1a8.364,8.364,0,0,1-1.8,1.54A4.52,4.52,0,0,1,425.5,243.894Zm1.083-2.281a2.69,2.69,0,0,0,1.413-.426,3.99,3.99,0,0,0,1.17-1.083,2.287,2.287,0,0,0,.469-1.34v-1.056h-.712a15.469,15.469,0,0,0-2.053.13,3.215,3.215,0,0,0-1.555.57,1.586,1.586,0,0,0-.585,1.352,1.743,1.743,0,0,0,.529,1.413A1.993,1.993,0,0,0,426.583,241.613Z" transform="translate(-336.242 -222.113)" fill="#fff"/>
          <path id="Path_101" data-name="Path 101" d="M432.085,243.894a8.5,8.5,0,0,1-2.508-.342,5.143,5.143,0,0,1-1.754-.869,1.438,1.438,0,0,1-.64-1.071,1.548,1.548,0,0,1,.128-.568,1.51,1.51,0,0,1,.371-.541.757.757,0,0,1,.527-.229,1.285,1.285,0,0,1,.785.327,5.732,5.732,0,0,0,1.1.655,4.507,4.507,0,0,0,1.911.33,2.8,2.8,0,0,0,1.923-.486,1.445,1.445,0,0,0,.5-1.054,1.413,1.413,0,0,0-.5-1.155,3.9,3.9,0,0,0-1.283-.669c-.522-.173-1.078-.337-1.668-.5a8.9,8.9,0,0,1-1.668-.64,3.471,3.471,0,0,1-1.283-1.112,3.224,3.224,0,0,1-.5-1.882,4.224,4.224,0,0,1,.484-1.925,3.815,3.815,0,0,1,1.555-1.567,5.743,5.743,0,0,1,2.864-.614,8.947,8.947,0,0,1,2.053.229,5.4,5.4,0,0,1,1.6.614c.419.255.628.537.628.84a1.62,1.62,0,0,1-.145.556,2.082,2.082,0,0,1-.385.628.785.785,0,0,1-.611.27,1.642,1.642,0,0,1-.712-.214,9.1,9.1,0,0,0-1-.414,4.276,4.276,0,0,0-1.4-.2,2.77,2.77,0,0,0-1.326.27,1.859,1.859,0,0,0-.729.643,1.4,1.4,0,0,0-.226.741,1.118,1.118,0,0,0,.484.97,4.283,4.283,0,0,0,1.283.57q.8.227,1.682.469a6.967,6.967,0,0,1,1.668.7,3.769,3.769,0,0,1,1.283,1.227,3.729,3.729,0,0,1,.5,2.053,3.558,3.558,0,0,1-1.3,2.878A5.605,5.605,0,0,1,432.085,243.894Z" transform="translate(-328.544 -222.113)" fill="#fff"/>
        </g>
      </g>
    </g>
    <g id="Group_115" data-name="Group 115" transform="translate(2414.458 2316.337)">
      <path id="Path_102" data-name="Path 102" d="M400.829,230.32a2.267,2.267,0,0,1,1.3,2.149c0,.142-2.731,8.291-4.276,12.1-2.115,5.222-5.8,8.789-10.663,10.317a18.067,18.067,0,0,1-18.3-4.589,18.291,18.291,0,0,1-2.873-3.834,18.1,18.1,0,0,1-2.264-8.95l.075-14.569a2.268,2.268,0,1,1,4.536.024l-.075,14.569a13.566,13.566,0,0,0,1.685,6.7,13.79,13.79,0,0,0,2.163,2.885,13.6,13.6,0,0,0,13.693,3.429c3.538-1.112,6.151-3.658,7.768-7.571,1.283-3.1,4-10.695,4-10.724a2.272,2.272,0,0,1,3.232-1.947Z" transform="translate(-363.751 -207.134)" fill="#fff"/>
      <path id="Path_103" data-name="Path 103" d="M385.315,217.661a2.263,2.263,0,0,1,1.307,2.06l-.051,21.158a1.914,1.914,0,0,1-.01.2,9.644,9.644,0,0,1-19.245-.753l-.274-18.935a2.268,2.268,0,0,1,4.536-.065l.274,18.935a5.107,5.107,0,0,0,10.182.491l.05-21.047a2.268,2.268,0,0,1,2.274-2.262A2.224,2.224,0,0,1,385.315,217.661Z" transform="translate(-359.122 -211.698)" fill="#fff"/>
      <path id="Path_104" data-name="Path 104" d="M373.441,215.272a2.273,2.273,0,0,1,1.307,2.058l-.014,18.855a2.269,2.269,0,0,1-4.539,0l.014-18.858a2.27,2.27,0,0,1,3.232-2.053Z" transform="translate(-354.687 -215.058)" fill="#fff"/>
    </g>
  </g>
</svg>
