<svg xmlns="http://www.w3.org/2000/svg" xmlns:xlink="http://www.w3.org/1999/xlink" width="697" height="749" viewBox="0 0 697 749"><defs><style>.a{fill:#fff;}.a,.c{stroke:#5996f7;}.b{opacity:0.408;clip-path:url(#a);}.c{fill:none;}</style><clipPath id="a"><rect class="a" width="697" height="749" transform="translate(640 -263)"/></clipPath></defs><g class="b" transform="translate(-640 263)"><g transform="translate(707 -262.663)"><path class="c" d="M935.109,369.065a34.929,34.929,0,0,1,20.026,33.117c-.074,2.189-42.091,127.755-65.9,186.533-32.6,80.472-89.41,135.432-164.321,158.98a278.415,278.415,0,0,1-281.987-70.72A281.866,281.866,0,0,1,398.65,617.9c-23.1-41.164-35.156-88.853-34.895-137.916L364.9,255.478a34.952,34.952,0,1,1,69.9.371l-1.15,224.507c-.184,37.01,8.789,72.721,25.96,103.316a212.484,212.484,0,0,0,33.337,44.464c54.106,55.367,136.953,76.134,211.008,52.845,54.514-17.133,94.788-56.368,119.709-116.667,19.765-47.839,61.633-164.8,61.633-165.247,6.541-18.954,17.281-34.155,36.527-33.264A35.152,35.152,0,0,1,935.109,369.065Z" transform="translate(-363.751 -11.761)"/><path class="c" d="M648.626,220.747a34.871,34.871,0,0,1,20.137,31.744l-.779,326.044a29.528,29.528,0,0,1-.149,3.152,148.606,148.606,0,0,1-296.562-11.608L367.046,278.3a34.955,34.955,0,0,1,69.9-1l4.227,291.778c.594,42.721,35.861,77.506,78.619,77.542a78.276,78.276,0,0,0,78.285-69.978l.778-324.337A34.955,34.955,0,0,1,633.9,217.447,34.275,34.275,0,0,1,648.626,220.747Z" transform="translate(-244.999 -128.853)"/><path class="c" d="M420.221,218.358a35.021,35.021,0,0,1,20.137,31.707l-.223,290.554a34.97,34.97,0,0,1-69.94-.038l.222-290.59a34.974,34.974,0,0,1,49.8-31.633Z" transform="translate(-131.22 -215.058)"/></g></g></svg>