<svg xmlns="http://www.w3.org/2000/svg" xmlns:xlink="http://www.w3.org/1999/xlink" width="141" height="140" viewBox="0 0 141 140"><defs><style>.a{fill:#5996f7;}.b{fill:#fff;}.c{filter:url(#a);}</style><filter id="a" x="0" y="0" width="141" height="140" filterUnits="userSpaceOnUse"><feOffset dy="10" input="SourceAlpha"/><feGaussianBlur stdDeviation="16" result="b"/><feFlood flood-opacity="0.161"/><feComposite operator="in" in2="b"/><feComposite in="SourceGraphic"/></filter></defs><g transform="translate(12 -897)"><g transform="translate(-8174 802)"><g class="c" transform="matrix(1, 0, 0, 1, 8162, 95)"><path class="a" d="M0,0H30A15,15,0,0,1,45,15V29A15,15,0,0,1,30,44H15A15,15,0,0,1,0,29V0A0,0,0,0,1,0,0Z" transform="translate(48 38)"/></g><g transform="translate(8223.496 143.588)"><path class="a" d="M381.116,225.2a1.062,1.062,0,0,1,.609,1.007c0,.067-1.279,3.883-2,5.669a7.925,7.925,0,0,1-4.994,4.832,8.462,8.462,0,0,1-8.57-2.149,8.566,8.566,0,0,1-1.346-1.8,8.478,8.478,0,0,1-1.061-4.192l.035-6.823a1.062,1.062,0,1,1,2.125.011l-.035,6.823a6.353,6.353,0,0,0,.789,3.14,6.46,6.46,0,0,0,1.013,1.351,6.37,6.37,0,0,0,6.413,1.606,5.775,5.775,0,0,0,3.638-3.546c.6-1.454,1.873-5.009,1.873-5.022a1.064,1.064,0,0,1,1.514-.912Z" transform="translate(-363.751 -214.342)"/><path class="a" d="M375.6,217.547a1.06,1.06,0,0,1,.612.965l-.024,9.909a.9.9,0,0,1,0,.1,4.517,4.517,0,0,1-9.013-.353l-.129-8.868a1.062,1.062,0,0,1,2.125-.03l.128,8.868a2.392,2.392,0,0,0,4.769.23l.024-9.858a1.062,1.062,0,0,1,1.065-1.059A1.042,1.042,0,0,1,375.6,217.547Z" transform="translate(-363.333 -214.754)"/><path class="a" d="M371.715,215.158a1.064,1.064,0,0,1,.612.964l-.007,8.831a1.063,1.063,0,0,1-2.126,0l.007-8.832a1.063,1.063,0,0,1,1.514-.961Z" transform="translate(-362.932 -215.058)"/></g></g><g transform="translate(49 948)"><path class="b" d="M13.833,19.59H.374a.374.374,0,0,1-.328-.553L6.775,6.7a.389.389,0,0,1,.657,0l6.73,12.338a.374.374,0,0,1-.328.553ZM1,18.842H13.2L7.1,7.659Z" transform="translate(0 -1.645)"/><path class="b" d="M21.4,21.225H17.661a.374.374,0,0,1,0-.748h3.106l-3.458-6.288-1.425,2.949a.374.374,0,1,1-.673-.326l1.741-3.6A.375.375,0,0,1,17.278,13a.394.394,0,0,1,.337.194l4.112,7.477a.374.374,0,0,1-.328.554Z" transform="translate(-3.828 -3.28)"/><path class="b" d="M9.374,5.608A.374.374,0,0,1,9,5.234V.374A.374.374,0,0,1,9.374,0H13.86a.374.374,0,0,1,.265.639L12.893,1.869,14.124,3.1a.374.374,0,0,1-.264.639H9.748v1.5A.374.374,0,0,1,9.374,5.608Zm.374-2.617h3.21L12.1,2.134a.374.374,0,0,1,0-.529l.857-.858H9.748Z" transform="translate(-2.27)"/><path class="b" d="M9.693,14.246H9.666a.372.372,0,0,1-.272-.149L8.572,13l-.823,1.1a.376.376,0,0,1-.272.149.361.361,0,0,1-.291-.108L5.93,12.881a.374.374,0,0,1,.529-.529l.951.951.863-1.151a.387.387,0,0,1,.6,0L9.734,13.3l.951-.951a.374.374,0,1,1,.529.529L9.957,14.137a.373.373,0,0,1-.264.109Z" transform="translate(-1.468 -3.03)"/></g></g></svg>