<svg xmlns="http://www.w3.org/2000/svg" xmlns:xlink="http://www.w3.org/1999/xlink" width="141" height="140" viewBox="0 0 141 140"><defs><style>.a{fill:#fff;}.b{fill:#5996f7;}.c{filter:url(#a);}</style><filter id="a" x="0" y="0" width="141" height="140" filterUnits="userSpaceOnUse"><feOffset dy="10" input="SourceAlpha"/><feGaussianBlur stdDeviation="16" result="b"/><feFlood flood-opacity="0.161"/><feComposite operator="in" in2="b"/><feComposite in="SourceGraphic"/></filter></defs><g transform="translate(-8162 -95)"><g class="c" transform="matrix(1, 0, 0, 1, 8162, 95)"><path class="a" d="M0,0H30A15,15,0,0,1,45,15V29A15,15,0,0,1,30,44H15A15,15,0,0,1,0,29V0A0,0,0,0,1,0,0Z" transform="translate(48 38)"/></g><g transform="translate(8223.496 143.588)"><path class="b" d="M381.116,225.2a1.062,1.062,0,0,1,.609,1.007c0,.067-1.279,3.883-2,5.669a7.925,7.925,0,0,1-4.994,4.832,8.462,8.462,0,0,1-8.57-2.149,8.566,8.566,0,0,1-1.346-1.8,8.478,8.478,0,0,1-1.061-4.192l.035-6.823a1.062,1.062,0,1,1,2.125.011l-.035,6.823a6.353,6.353,0,0,0,.789,3.14,6.46,6.46,0,0,0,1.013,1.351,6.37,6.37,0,0,0,6.413,1.606,5.775,5.775,0,0,0,3.638-3.546c.6-1.454,1.873-5.009,1.873-5.022a1.064,1.064,0,0,1,1.514-.912Z" transform="translate(-363.751 -214.342)"/><path class="b" d="M375.6,217.547a1.06,1.06,0,0,1,.612.965l-.024,9.909a.9.9,0,0,1,0,.1,4.517,4.517,0,0,1-9.013-.353l-.129-8.868a1.062,1.062,0,0,1,2.125-.03l.128,8.868a2.392,2.392,0,0,0,4.769.23l.024-9.858a1.062,1.062,0,0,1,1.065-1.059A1.042,1.042,0,0,1,375.6,217.547Z" transform="translate(-363.333 -214.754)"/><path class="b" d="M371.715,215.158a1.064,1.064,0,0,1,.612.964l-.007,8.831a1.063,1.063,0,0,1-2.126,0l.007-8.832a1.063,1.063,0,0,1,1.514-.961Z" transform="translate(-362.932 -215.058)"/></g></g></svg>