<svg xmlns="http://www.w3.org/2000/svg" width="59.716" height="67.586" viewBox="0 0 59.716 67.586"><defs><style>.a{fill:#fff;}.b{fill:#5996f7;stroke-width:0.5px;}.b,.d{stroke:#fff;}.c,.d{fill:none;stroke-linecap:round;stroke-miterlimit:10;}.c{stroke:#5996f7;}</style></defs><g transform="translate(0.52 0.507)"><g transform="translate(0 0)"><g transform="translate(0 0)"><g transform="translate(7.407 7.395)"><path class="a" d="M175.624,71.238l3.012,34.873,13.158-1.252-.195-5.278,3.732-4.191L205.71,74.826a1.112,1.112,0,0,0-1.22-1.59h0a1.114,1.114,0,0,0-.583.326l-6.145,6.527a3.3,3.3,0,0,1-5.653-1.742L188.817,57.6a1.409,1.409,0,0,0-.494-.866h0l-.017-.014a1.127,1.127,0,0,0-1.8.816,5.828,5.828,0,0,0-.03.637l1.174,15.48a.273.273,0,0,1-.541.07L184.2,55.838a1.187,1.187,0,0,0-.326-.682h0a1.185,1.185,0,0,0-1.843.175h0a1.182,1.182,0,0,0-.191.731l1.168,16.911a.319.319,0,0,1-.632.082l-2.513-13.074h0a1.135,1.135,0,0,0-.577-.382,1.11,1.11,0,0,0-1.355,1.22l1.363,12.527a.425.425,0,0,1-.831.159l-1.3-4.71h0a.78.78,0,0,0-1.453.241h0A8.306,8.306,0,0,0,175.624,71.238Z" transform="translate(-175.587 -54.794)"/><path class="b" d="M225.559,64.375l18.229,28.1-11.075,7.214-1.388-2.247a2.583,2.583,0,0,0-1.726-1.136l-2.118-.366a17.85,17.85,0,0,1-4.421-1.373l-18.805-8.652a1.112,1.112,0,0,1-.036-2h0a1.114,1.114,0,0,1,.66-.108l8.873,1.28a3.3,3.3,0,0,0,3.338-4.884L206.743,61.918a1.409,1.409,0,0,1-.152-.985h0l0-.021a1.127,1.127,0,0,1,1.915-.481,5.754,5.754,0,0,1,.42.48l8.721,12.843a.273.273,0,0,0,.467-.282l-8.859-15.8a1.185,1.185,0,0,1-.17-.737h0a1.185,1.185,0,0,1,1.551-1.01h0a1.187,1.187,0,0,1,.6.453l9.617,13.959a.319.319,0,0,0,.546-.329l-6.015-11.487a.921.921,0,0,1,.039-.946l.014-.02a1.046,1.046,0,0,1,1.819.111L224,68.31a.424.424,0,0,0,.749-.393l-1.915-4.5h0a.78.78,0,0,1,1.287-.717h0A8.3,8.3,0,0,1,225.559,64.375Z" transform="translate(-192.345 -55.431)"/><path class="c" d="M210.127,156.123s-3.378,6.315-9.693,5.581" transform="translate(-190.448 -115.398)"/></g><path class="d" d="M163.59,174.764s-2.01,8.038,4.823,9.244" transform="translate(-160.84 -119.152)"/><path class="d" d="M157.433,178.855s-2.01,8.038,4.823,9.244" transform="translate(-157.157 -121.599)"/><path class="d" d="M289.124,72.583s-.969-8.229-7.785-6.935" transform="translate(-235.852 -63.095)"/><path class="d" d="M293.433,66.575s-.969-8.229-7.786-6.935" transform="translate(-238.428 -59.502)"/></g></g></g></svg>