<svg id="Group_3" data-name="Group 3" xmlns="http://www.w3.org/2000/svg" width="34.297" height="43.417" viewBox="0 0 34.297 43.417">
  <path id="Path_1" data-name="Path 1" d="M396.884,229.3a2.025,2.025,0,0,1,1.161,1.92c0,.127-2.441,7.409-3.822,10.817a15.12,15.12,0,0,1-9.529,9.219,16.145,16.145,0,0,1-16.353-4.1,16.343,16.343,0,0,1-2.568-3.426,16.178,16.178,0,0,1-2.024-8l.067-13.019a2.027,2.027,0,1,1,4.054.022L367.8,235.75a12.123,12.123,0,0,0,1.505,5.991,12.325,12.325,0,0,0,1.933,2.579,12.154,12.154,0,0,0,12.237,3.065,11.02,11.02,0,0,0,6.942-6.766c1.146-2.774,3.574-9.557,3.574-9.583a2.03,2.03,0,0,1,2.888-1.74Z" transform="translate(-363.751 -208.576)" fill="#fff"/>
  <path id="Path_2" data-name="Path 2" d="M383.371,217.638a2.022,2.022,0,0,1,1.168,1.841l-.045,18.908a1.727,1.727,0,0,1-.008.183,8.618,8.618,0,0,1-17.2-.673l-.245-16.92a2.027,2.027,0,1,1,4.054-.058l.245,16.92a4.564,4.564,0,0,0,9.1.439l.045-18.809a2.027,2.027,0,0,1,2.032-2.022A1.988,1.988,0,0,1,383.371,217.638Z" transform="translate(-359.965 -212.309)" fill="#fff"/>
  <path id="Path_3" data-name="Path 3" d="M373.1,215.249a2.031,2.031,0,0,1,1.168,1.839l-.013,16.849a2.028,2.028,0,0,1-4.056,0l.013-16.852a2.028,2.028,0,0,1,2.888-1.834Z" transform="translate(-356.337 -215.058)" fill="#fff"/>
</svg>
