<svg xmlns="http://www.w3.org/2000/svg" width="24.001" height="24" viewBox="0 0 24.001 24"><defs><style>.a{fill:#fff;}</style></defs><g transform="translate(0)"><path class="a" d="M18.5,24H.5a.5.5,0,0,1-.439-.74l9-16.5a.521.521,0,0,1,.878,0l9,16.5A.5.5,0,0,1,18.5,24ZM1.342,23H17.657L9.5,8.044Z"/><path class="a" d="M23.5,24h-5a.5.5,0,0,1,0-1h4.154l-4.625-8.41-1.906,3.944a.5.5,0,0,1-.9-.436l2.328-4.816A.5.5,0,0,1,17.988,13a.526.526,0,0,1,.451.259l5.5,10A.5.5,0,0,1,23.5,24Z"/><path class="a" d="M9.5,7.5A.5.5,0,0,1,9,7V.5A.5.5,0,0,1,9.5,0h6a.5.5,0,0,1,.354.854L14.207,2.5l1.646,1.646A.5.5,0,0,1,15.5,5H10V7a.5.5,0,0,1-.5.5ZM10,4h4.293L13.147,2.854a.5.5,0,0,1,0-.707L14.293,1H10Z"/><path class="a" d="M11,15h-.036a.5.5,0,0,1-.364-.2L9.5,13.334,8.4,14.8a.5.5,0,0,1-.364.2.483.483,0,0,1-.389-.145l-1.68-1.68a.5.5,0,0,1,.707-.707l1.272,1.272L9.1,12.2a.518.518,0,0,1,.8,0l1.154,1.539,1.272-1.272a.5.5,0,0,1,.707.707l-1.68,1.68A.5.5,0,0,1,11,15Z"/></g></svg>