<svg width="24" height="16" viewBox="0 0 24 16" fill="none" xmlns="http://www.w3.org/2000/svg">
<path fill-rule="evenodd" clip-rule="evenodd" d="M8.04001 4.48999C8.04001 3.38542 8.93544 2.48999 10.04 2.48999C11.1446 2.48999 12.04 3.38542 12.04 4.48999C12.04 5.59456 11.1446 6.48999 10.04 6.48999C8.93544 6.48999 8.04001 5.59456 8.04001 4.48999ZM10.04 0.48999C7.83087 0.48999 6.04001 2.28085 6.04001 4.48999C6.04001 6.69913 7.83087 8.48999 10.04 8.48999C12.2491 8.48999 14.04 6.69913 14.04 4.48999C14.04 2.28085 12.2491 0.48999 10.04 0.48999ZM6.93401 9.17096C5.90126 9.17096 4.9108 9.58122 4.18053 10.3115C3.45027 11.0418 3.04001 12.0322 3.04001 13.065V14.511C3.04001 15.0632 3.48772 15.511 4.04001 15.511C4.59229 15.511 5.04001 15.0632 5.04001 14.511V13.065C5.04001 12.5626 5.23955 12.0809 5.59475 11.7257C5.94994 11.3705 6.43169 11.171 6.93401 11.171H12.721C13.2233 11.171 13.7051 11.3705 14.0603 11.7257C14.4155 12.0809 14.615 12.5626 14.615 13.065V14.511C14.615 15.0632 15.0627 15.511 15.615 15.511C16.1673 15.511 16.615 15.0632 16.615 14.511V13.065C16.615 12.0322 16.2047 11.0418 15.4745 10.3115C14.7442 9.58122 13.7538 9.17096 12.721 9.17096H6.93401ZM16.8168 10.0148C16.955 9.48012 17.5005 9.15865 18.0352 9.29681C18.8705 9.51264 19.6104 9.99973 20.1389 10.6816C20.6674 11.3635 20.9544 12.2016 20.955 13.0643V13.065V14.511C20.955 15.0633 20.5073 15.511 19.955 15.511C19.4027 15.511 18.955 15.0633 18.955 14.511V13.0654C18.9547 12.6459 18.815 12.2384 18.5581 11.9068C18.301 11.5751 17.9411 11.3382 17.5348 11.2332C17.0001 11.095 16.6786 10.5496 16.8168 10.0148ZM15.1398 0.615429C14.6049 0.478022 14.0599 0.800269 13.9225 1.33519C13.785 1.87011 14.1073 2.41513 14.6422 2.55254C15.0493 2.65711 15.41 2.89411 15.6676 3.22622C15.9252 3.55833 16.065 3.96669 16.065 4.38698C16.065 4.80728 15.9252 5.21564 15.6676 5.54775C15.41 5.87986 15.0493 6.11686 14.6422 6.22143C14.1073 6.35884 13.785 6.90386 13.9225 7.43878C14.0599 7.9737 14.6049 8.29595 15.1398 8.15854C15.9767 7.94355 16.7184 7.45629 17.248 6.77347C17.7776 6.09066 18.065 5.2511 18.065 4.38698C18.065 3.52287 17.7776 2.68331 17.248 2.00049C16.7184 1.31768 15.9767 0.830417 15.1398 0.615429Z" fill="#5996F7"/>
</svg>
