<svg width="16" height="16" viewBox="0 0 16 16" fill="none" xmlns="http://www.w3.org/2000/svg">
<path fill-rule="evenodd" clip-rule="evenodd" d="M5.9527 0H10.0467C10.6226 0 11.0911 0.4685 11.0911 1.04437V2.4021H15.4568V3.65535H14.1298L13.0938 15.4281C13.0656 15.7517 12.7944 16 12.4696 16H3.509C3.18422 16 2.91328 15.7518 2.88488 15.4283L1.84888 3.65535H0.542969V2.4021H4.90833V1.04437C4.90833 0.4685 5.37682 0 5.9527 0ZM6.16157 2.4021H9.83782V1.25325H6.16157V2.4021ZM11.8957 14.7468H4.08281L3.10694 3.65535H12.8717L11.8957 14.7468ZM6.20288 5.47028L6.47441 12.8854L5.222 12.9314L4.95044 5.51624L6.20288 5.47028ZM11.0491 5.51643L9.79668 5.47049L9.52515 12.8856L10.7776 12.9314L11.0491 5.51643ZM8.62636 5.49347H7.37311V12.9086H8.62636V5.49347Z" fill="white"/>
</svg>
