<svg xmlns="http://www.w3.org/2000/svg" width="53.447" height="46.553" viewBox="0 0 53.447 46.553"><defs><style>.a{opacity:0.374;}.b{fill:#5996f7;}</style></defs><g class="a"><g transform="translate(0 0)"><g transform="translate(0 0)"><path class="b" d="M52.839,67.735a2.088,2.088,0,0,0-3.878,1.548,4.463,4.463,0,0,1-.477,4.159,4.4,4.4,0,0,1-3.7,1.956H8.671a4.484,4.484,0,0,1-3.81-6.843L22.918,39.321a4.477,4.477,0,0,1,7.62,0L43.892,60.943a2.088,2.088,0,0,0,3.552-2.194L34.089,37.127a8.652,8.652,0,0,0-14.724,0L1.309,66.362A8.66,8.66,0,0,0,8.671,79.573H44.784a8.521,8.521,0,0,0,7.157-3.79A8.633,8.633,0,0,0,52.839,67.735Z" transform="translate(0 -33.02)"/><path class="b" d="M238.134,364.166a2.088,2.088,0,1,0,0-4.175h0a2.088,2.088,0,0,0,0,4.175Z" transform="translate(-211.405 -325.859)"/><path class="b" d="M240.217,160.441V145.1a2.088,2.088,0,0,0-4.175,0v15.344a2.088,2.088,0,0,0,4.175,0Z" transform="translate(-211.402 -131.528)"/></g></g></g></svg>