<svg xmlns="http://www.w3.org/2000/svg" width="13.494" height="13.518" viewBox="0 0 13.494 13.518"><defs><style>.a{fill:none;stroke:#5996f7;stroke-linecap:round;stroke-linejoin:round;stroke-width:1.5px;}</style></defs><path class="a" d="M14.1,11v1.809a1.206,1.206,0,0,1-1.315,1.206,11.934,11.934,0,0,1-5.2-1.851A11.759,11.759,0,0,1,3.968,8.543,11.934,11.934,0,0,1,2.117,3.315,1.206,1.206,0,0,1,3.317,2H5.126A1.206,1.206,0,0,1,6.332,3.037a7.743,7.743,0,0,0,.422,1.694A1.206,1.206,0,0,1,6.483,6l-.766.766a9.648,9.648,0,0,0,3.618,3.618l.766-.766a1.206,1.206,0,0,1,1.272-.271,7.743,7.743,0,0,0,1.694.422A1.206,1.206,0,0,1,14.1,11Z" transform="translate(-1.362 -1.25)"/></svg>