<svg xmlns="http://www.w3.org/2000/svg" width="123.085" height="19.047" viewBox="0 0 123.085 19.047"><defs><style>.a{fill:#161615;}</style></defs><g transform="translate(-66.617 -242.992)"><path class="a" d="M754.939,269.537a1.729,1.729,0,1,1,1.728,1.734A1.724,1.724,0,0,1,754.939,269.537Zm3,0a1.274,1.274,0,1,0-1.273,1.323A1.249,1.249,0,0,0,757.94,269.537Zm-.416.946h-.45l-.416-.789h-.309v.789h-.392v-1.871h.9c.49,0,.725.132.725.573,0,.343-.181.485-.509.509Zm-.66-1.073c.211.005.357-.044.357-.274,0-.255-.27-.235-.45-.235h-.421v.509Z" transform="translate(-568.694 -20.508)"/><g transform="translate(66.617 242.992)"><path class="a" d="M77.67,245.6H73.683v12.75H70.6V245.6H66.617v-2.605H77.67Z" transform="translate(-66.617 -242.992)"/><path class="a" d="M139.836,248.44a5.321,5.321,0,0,1,3.3-1.382c1.2,0,2.9.731,2.9,3.454v7.836h-2.921V251.7c0-.888.059-2.29-1.2-2.29a3.025,3.025,0,0,0-2.073,1.2v7.737h-2.921V242.992h2.921Z" transform="translate(-124.697 -242.992)"/><path class="a" d="M196.311,272.148c0-2.941,1.618-5.763,4.855-5.763s4.856,2.822,4.856,5.763c0,2.921-1.638,5.764-4.856,5.764S196.311,275.069,196.311,272.148Zm6.711,0c0-1.382-.277-3.612-1.856-3.612s-1.855,2.23-1.855,3.612.276,3.612,1.855,3.612S203.022,273.53,203.022,272.148Z" transform="translate(-173.771 -262.319)"/><path class="a" d="M265.764,277.656a5.32,5.32,0,0,1-3.3,1.382c-1.2,0-2.9-.73-2.9-3.454v-7.836h2.921V274.4c0,.888-.059,2.289,1.2,2.289a3.022,3.022,0,0,0,2.073-1.2v-7.737h2.921V278.8h-2.921Z" transform="translate(-226.032 -263.445)"/><path class="a" d="M321.6,273.388a.75.75,0,0,0-.829.691c0,1.441,7.658-1.066,7.658,3.257,0,1.638-1.105,3.375-5.487,3.375-3.809,0-5.112-1.342-5.112-2.783a1.906,1.906,0,0,1,1.2-1.678,1.755,1.755,0,0,1-.868-1.4,2.505,2.505,0,0,1,1.44-2.211,4.156,4.156,0,0,1-1.381-3.039c0-2.448,2.073-3.869,4.46-3.869a5.309,5.309,0,0,1,2.724.77,2.706,2.706,0,0,1,1.994-.908,4.119,4.119,0,0,1,.849.079v2.053a2.576,2.576,0,0,0-.928-.237,1.609,1.609,0,0,0-.789.237,4.431,4.431,0,0,1,.592,1.875c0,2.447-2.053,3.868-4.441,3.868Zm-.928,3.651a.755.755,0,0,0-.454.691c0,1.027,2.073,1.086,2.764,1.086.493,0,3.06-.059,3.06-.948,0-.572-.395-.514-2.132-.612Zm2.013-5.507c1.224,0,1.579-1.007,1.579-2.053,0-1.007-.474-1.856-1.579-1.856-1.224,0-1.6,1.026-1.6,2.073C321.083,270.7,321.556,271.533,322.682,271.533Z" transform="translate(-274.167 -261.664)"/><path class="a" d="M387.978,248.44a5.316,5.316,0,0,1,3.3-1.382c1.2,0,2.9.731,2.9,3.454v7.836h-2.921V251.7c0-.888.06-2.29-1.2-2.29a3.022,3.022,0,0,0-2.072,1.2v7.737h-2.922V242.992h2.922Z" transform="translate(-329.712 -242.992)"/><path class="a" d="M447.715,254.614h2.27v2.428h-2.27v5.625c0,.533.157,1.086,1.105,1.086a2.079,2.079,0,0,0,1.165-.415v2.23a6.813,6.813,0,0,1-1.876.336,3.1,3.1,0,0,1-3.315-3.435v-5.427h-1.363v-2.428h1.363v-2.763h2.921Z" transform="translate(-377.942 -250.311)"/><path class="a" d="M495.171,258.348h-1.579l-2.6-12.553h-.039L488.2,258.348h-1.579l-3.217-15.356h1.539l2.527,12.395h.04l2.763-12.395h1.52l2.624,12.395h.04l2.7-12.395h1.52Z" transform="translate(-410.971 -242.992)"/><path class="a" d="M567.443,272.6c0-4.086,1.935-5.763,4.362-5.763s4.362,1.677,4.362,5.763-1.935,5.764-4.362,5.764S567.443,276.69,567.443,272.6Zm7.184,0c0-1.855-.453-4.46-2.822-4.46s-2.823,2.605-2.823,4.46.455,4.461,2.823,4.461S574.627,274.46,574.627,272.6Z" transform="translate(-480.401 -262.696)"/><path class="a" d="M626.111,270.255h.04c.612-1.3,1.4-2.507,3.02-2.507h.592v1.4c-2.013-.276-3.06,1.894-3.652,3.474V278.8h-1.539V267.906h1.539Z" transform="translate(-527.601 -263.445)"/><path class="a" d="M663.131,252.505l4.046-5.053h1.717l-3,3.73,3.453,7.165H667.69l-2.784-5.921-1.776,2.191v3.73h-1.54V242.992h1.54Z" transform="translate(-558.187 -242.992)"/><path class="a" d="M714.493,269.584a2.814,2.814,0,0,0-2.487-1.44c-1.006,0-1.953.513-1.953,1.618,0,2.664,5.744,1.5,5.744,5.171a3.322,3.322,0,0,1-3.573,3.435,4.473,4.473,0,0,1-4.065-2.29l1.223-.77a3.046,3.046,0,0,0,2.842,1.757,1.9,1.9,0,0,0,2.132-1.855c0-2.743-5.743-1.441-5.743-5.349a3.087,3.087,0,0,1,3.336-3.02,4.177,4.177,0,0,1,3.631,1.9Z" transform="translate(-596.66 -262.696)"/></g></g></svg>