<svg xmlns="http://www.w3.org/2000/svg" width="161.756" height="64.419" viewBox="0 0 161.756 64.419"><defs><style>.a,.b{fill:#fff;font-family:Dosis-SemiBold, Dosis;font-weight:600;}.a{font-size:26px;}.b{font-size:27px;}.c{fill:#5996f7;}</style></defs><g transform="translate(-363.751 -211.874)"><g transform="translate(420.507 211.874)"><text class="a" transform="translate(0.239 27)"><tspan x="0" y="0">Atendo </tspan></text><text class="b" transform="translate(0 58.419)"><tspan x="0" y="0">em Libras</tspan></text></g><g transform="translate(363.751 220.085)"><path class="c" d="M403.489,231.011a2.429,2.429,0,0,1,1.393,2.3c-.005.152-2.927,8.885-4.583,12.973-2.267,5.6-6.218,9.419-11.428,11.057a19.363,19.363,0,0,1-19.612-4.918,19.6,19.6,0,0,1-3.08-4.109,19.4,19.4,0,0,1-2.427-9.592l.08-15.614a2.431,2.431,0,1,1,4.862.026l-.08,15.614a14.54,14.54,0,0,0,1.805,7.186,14.78,14.78,0,0,0,2.319,3.092,14.577,14.577,0,0,0,14.676,3.675c3.791-1.192,6.592-3.92,8.326-8.114,1.375-3.327,4.286-11.462,4.286-11.493a2.435,2.435,0,0,1,3.464-2.087Z" transform="translate(-363.751 -206.161)"/><path class="c" d="M386.626,217.677a2.425,2.425,0,0,1,1.4,2.208l-.054,22.676a2.059,2.059,0,0,1-.01.219,10.335,10.335,0,0,1-20.626-.807l-.294-20.293a2.431,2.431,0,1,1,4.862-.07L372.2,241.9a5.473,5.473,0,0,0,10.913.526l.054-22.557a2.431,2.431,0,0,1,2.437-2.424A2.384,2.384,0,0,1,386.626,217.677Z" transform="translate(-358.554 -211.285)"/><path class="c" d="M373.674,215.288a2.436,2.436,0,0,1,1.4,2.205l-.015,20.208a2.432,2.432,0,0,1-4.864,0l.015-20.21a2.432,2.432,0,0,1,3.464-2.2Z" transform="translate(-353.574 -215.058)"/></g></g></svg>