<svg xmlns="http://www.w3.org/2000/svg" width="448.331" height="489.867" viewBox="0 0 448.331 489.867"><defs><style>.a,.d,.e,.f{fill:none;}.a,.e{stroke:#fff;}.a{opacity:0.191;}.b{fill:#fff;}.c{fill:#5996f7;}.d{stroke:#5996f7;}.d,.f{stroke-linecap:round;}.d,.e,.f{stroke-miterlimit:10;stroke-width:3px;}.f{stroke:#2ddda0;}.g{fill:#212c4d;}</style></defs><g transform="translate(-25.83 -78.721)"><path class="a" d="M381.159,432.39s43.443-37.969,219.2-36.451S795.483,282.8,795.483,282.8" transform="translate(-355 -204)"/><path class="a" d="M0,149.585s43.443-37.969,219.2-36.451S414.324,0,414.324,0" transform="translate(130.215 212.301) rotate(34)"/><g transform="translate(143.805 189.661)"><g transform="translate(0 0)"><g transform="translate(32.082 32.029)"><path class="b" d="M175.749,126.014l13.045,151.042,56.99-5.424-.843-22.859L261.1,230.62l44.949-89.066a4.818,4.818,0,0,0-5.285-6.888h0a4.826,4.826,0,0,0-2.526,1.413l-26.616,28.268a14.271,14.271,0,0,1-24.483-7.546L232.888,66.935a6.1,6.1,0,0,0-2.141-3.751h0l-.073-.059a4.879,4.879,0,0,0-7.786,3.534,25.208,25.208,0,0,0-.131,2.759l5.086,67.044a1.183,1.183,0,0,1-2.345.3l-12.6-77.452a5.141,5.141,0,0,0-1.41-2.956h0a5.134,5.134,0,0,0-7.983.759v0a5.12,5.12,0,0,0-.827,3.166l5.057,73.245a1.383,1.383,0,0,1-2.738.355L194.11,77.256h0a4.917,4.917,0,0,0-2.5-1.654,4.809,4.809,0,0,0-5.868,5.283l5.9,54.257a1.839,1.839,0,0,1-3.6.689l-5.637-20.4h0a3.378,3.378,0,0,0-6.294,1.043h0A35.98,35.98,0,0,0,175.749,126.014Z" transform="translate(-175.587 -54.794)"/><path class="c" d="M298.688,92.745l78.955,121.716-47.969,31.246-6.012-9.732a11.189,11.189,0,0,0-7.475-4.921l-9.175-1.586a77.31,77.31,0,0,1-19.15-5.946L206.412,186.05a4.818,4.818,0,0,1-.155-8.681h0a4.825,4.825,0,0,1,2.857-.467l38.428,5.542A14.27,14.27,0,0,0,262,161.294L217.191,82.1a6.1,6.1,0,0,1-.66-4.268h0l.019-.092a4.88,4.88,0,0,1,8.293-2.084,24.948,24.948,0,0,1,1.821,2.078l37.77,55.623a1.183,1.183,0,0,0,2.025-1.222L228.087,63.687a5.135,5.135,0,0,1-.736-3.191h0a5.135,5.135,0,0,1,6.719-4.376h0a5.14,5.14,0,0,1,2.62,1.964l41.654,60.457a1.383,1.383,0,0,0,2.364-1.426l-26.05-49.75a3.987,3.987,0,0,1,.167-4.1l.061-.087c2.178-3.008,5.9-2.658,7.88.48l29.169,46.128a1.838,1.838,0,0,0,3.245-1.7l-8.295-19.472h0a3.379,3.379,0,0,1,5.576-3.1h0A35.927,35.927,0,0,1,298.688,92.745Z" transform="translate(-154.832 -54.006)"/><path class="d" d="M242.415,156.123s-14.631,27.35-41.981,24.17" transform="translate(-157.182 20.263)"/></g><path class="e" d="M164.508,174.764S155.8,209.579,185.4,214.8" transform="translate(-152.596 66.101)"/><path class="e" d="M158.351,178.855s-8.7,34.815,20.889,40.037" transform="translate(-157.157 69.131)"/><path class="f" d="M315.059,96.144s-4.2-35.64-33.72-30.036" transform="translate(-84.325 -55.052)"/><path class="f" d="M319.369,90.137S315.17,54.5,285.647,60.1" transform="translate(-81.134 -59.502)"/></g></g><g transform="translate(414.62 270.641)"><g transform="matrix(0.966, -0.259, 0.259, 0.966, 0, 11.102)"><g transform="translate(0)"><path class="g" d="M.765,0a.765.765,0,1,0,.765.765A.765.765,0,0,0,.765,0Z" transform="translate(12.267 22.19)"/><path class="g" d="M4.815,4.582a2.86,2.86,0,0,1-1.253-1.2C3.144,2.562,2.567,1.364,2,0A13.7,13.7,0,0,1,0,1.158C.99,2.451,1.769,3.623,2.18,4.266A2.553,2.553,0,0,1,2.556,5.84a1.531,1.531,0,1,0,2.856-.674A1.491,1.491,0,0,0,4.815,4.582Z" transform="translate(27.315 32.729)"/><path class="g" d="M2.015,3.446A2.55,2.55,0,0,1,.843,4.556,1.531,1.531,0,1,0,2.854,6.693a1.5,1.5,0,0,0,.205-.807A2.854,2.854,0,0,1,3.473,4.2c.5-.774,1.251-1.875,2.143-3.046A13.816,13.816,0,0,1,3.616,0c-.582,1.412-1.174,2.625-1.6,3.446Z" transform="translate(9.973 32.73)"/><path class="g" d="M.8,2.874a2.856,2.856,0,0,1,1.252,1.2c.419.82,1,2.019,1.565,3.384a13.788,13.788,0,0,1,2-1.158c-.931-1.214-1.684-2.332-2.181-3.11A2.552,2.552,0,0,1,3.059,1.62,1.531,1.531,0,1,0,.2,2.293,1.5,1.5,0,0,0,.8,2.874Z" transform="translate(9.973 2.664)"/><path class="g" d="M3.6,4.009A2.555,2.555,0,0,1,4.776,2.9,1.531,1.531,0,1,0,2.765.762a1.5,1.5,0,0,0-.209.807,2.854,2.854,0,0,1-.413,1.684C1.641,4.027.892,5.128,0,6.3A13.815,13.815,0,0,1,2,7.454C2.582,6.042,3.174,4.83,3.6,4.009Z" transform="translate(27.314 2.665)"/><circle class="g" cx="2.296" cy="2.296" r="2.296" transform="translate(16.858 14.536)"/><path class="g" d="M7.724,2.7c-.031-.383-.049-.765-.049-1.154S7.692.777,7.724.4C6.21.594,4.866.687,3.945.729A2.56,2.56,0,0,1,2.4.269,1.531,1.531,0,0,0,.383,2.543a1.571,1.571,0,0,0,1.972.313,2.872,2.872,0,0,1,1.665-.484C4.938,2.416,6.264,2.513,7.724,2.7Z" transform="translate(0 19.876)"/><circle class="g" cx="0.765" cy="0.765" r="0.765" transform="translate(26.808 18.363)"/><path class="g" d="M7.342.529A1.572,1.572,0,0,0,5.37.216,2.84,2.84,0,0,1,3.705.7C2.787.652,1.46.556,0,.366Q.05.939.05,1.52c0,.387-.018.772-.049,1.153,1.614-.21,3.018-.3,3.779-.334A2.576,2.576,0,0,1,5.327,2.8,1.531,1.531,0,0,0,7.342.529Z" transform="translate(35.179 19.904)"/><path class="g" d="M36.763,30.046a1.463,1.463,0,0,0-.826-.2,2.761,2.761,0,0,1-1.654-.409c-1.212-.784-2.36-1.6-3.409-2.422a1.538,1.538,0,0,1-.5-1.7,12.282,12.282,0,0,0,0-7.775,1.538,1.538,0,0,1,.5-1.7c1.366-1.072,2.633-1.926,3.455-2.455a2.575,2.575,0,0,1,1.581-.375,1.571,1.571,0,0,0,1.1-.383,1.531,1.531,0,1,0-2.364-1.871,2.846,2.846,0,0,1-1.187,1.241c-.791.4-2.7,1.245-3.776,1.711a1.535,1.535,0,0,1-1.76-.4,12.206,12.206,0,0,0-6.7-3.872A1.531,1.531,0,0,1,19.99,8.107c-.135-1.189-.367-3.315-.407-4.2a2.544,2.544,0,0,1,.459-1.531,1.531,1.531,0,1,0-2.807-.851,1.5,1.5,0,0,0,.23.805,2.8,2.8,0,0,1,.481,1.656c-.045.879-.274,2.959-.406,4.121A1.531,1.531,0,0,1,16.31,9.43a12.216,12.216,0,0,0-6.7,3.874,1.531,1.531,0,0,1-1.757.4c-1.093-.475-3.045-1.333-3.835-1.744A2.559,2.559,0,0,1,2.9,10.786,1.534,1.534,0,1,0,.771,12.8a1.483,1.483,0,0,0,.822.2,2.736,2.736,0,0,1,1.654.409c1.215.786,2.363,1.6,3.408,2.421a1.538,1.538,0,0,1,.5,1.7,12.282,12.282,0,0,0,0,7.773,1.538,1.538,0,0,1-.5,1.7C5.286,28.085,4.02,28.941,3.2,29.469a2.592,2.592,0,0,1-1.578.375,1.564,1.564,0,0,0-1.1.383A1.531,1.531,0,0,0,2.293,32.7a1.507,1.507,0,0,0,.589-.6A2.846,2.846,0,0,1,4.07,30.856c.791-.4,2.7-1.245,3.776-1.711a1.522,1.522,0,0,1,.6-.126,1.548,1.548,0,0,1,1.158.526,12.206,12.206,0,0,0,6.7,3.873,1.531,1.531,0,0,1,1.231,1.325c.135,1.184.366,3.3.407,4.2a2.566,2.566,0,0,1-.459,1.537,1.531,1.531,0,1,0,2.807.85,1.5,1.5,0,0,0-.23-.807,2.784,2.784,0,0,1-.481-1.652c.058-1.125.188-2.852.473-4.7a.772.772,0,0,1,.64-.657,12.16,12.16,0,0,0,7.225-3.966,1.531,1.531,0,0,1,1.76-.4c1.1.476,3.052,1.336,3.834,1.744a2.553,2.553,0,0,1,1.108,1.175,1.535,1.535,0,1,0,2.137-2.019ZM10.346,25.251a2.3,2.3,0,1,1,2.3-2.3A2.3,2.3,0,0,1,10.346,25.251Zm2.3-8.419a3.827,3.827,0,1,1,3.827,3.827A3.827,3.827,0,0,1,12.642,16.832Zm6.888,14.542a4.592,4.592,0,1,1,4.592-4.592A4.592,4.592,0,0,1,19.531,31.374Zm5.358-9.95a2.3,2.3,0,1,1,2.3-2.3A2.3,2.3,0,0,1,24.889,21.424Z" transform="translate(2.686)"/><path class="g" d="M3.062,0A3.062,3.062,0,1,0,6.123,3.062,3.062,3.062,0,0,0,3.062,0Z" transform="translate(19.155 23.721)"/></g></g><circle class="g" cx="11.492" cy="11.492" r="11.492" transform="translate(14.581 15.215)"/></g><g transform="translate(46.861 350.131)"><g transform="matrix(0.966, -0.259, 0.259, 0.966, 0, 11.102)"><g transform="translate(0)"><path class="g" d="M.765,0a.765.765,0,1,0,.765.765A.765.765,0,0,0,.765,0Z" transform="translate(12.267 22.19)"/><path class="g" d="M4.815,4.582a2.86,2.86,0,0,1-1.253-1.2C3.144,2.562,2.567,1.364,2,0A13.7,13.7,0,0,1,0,1.158C.99,2.451,1.769,3.623,2.18,4.266A2.553,2.553,0,0,1,2.556,5.84a1.531,1.531,0,1,0,2.856-.674A1.491,1.491,0,0,0,4.815,4.582Z" transform="translate(27.315 32.729)"/><path class="g" d="M2.015,3.446A2.55,2.55,0,0,1,.843,4.556,1.531,1.531,0,1,0,2.854,6.693a1.5,1.5,0,0,0,.205-.807A2.854,2.854,0,0,1,3.473,4.2c.5-.774,1.251-1.875,2.143-3.046A13.816,13.816,0,0,1,3.616,0c-.582,1.412-1.174,2.625-1.6,3.446Z" transform="translate(9.973 32.73)"/><path class="g" d="M.8,2.874a2.856,2.856,0,0,1,1.252,1.2c.419.82,1,2.019,1.565,3.384a13.788,13.788,0,0,1,2-1.158c-.931-1.214-1.684-2.332-2.181-3.11A2.552,2.552,0,0,1,3.059,1.62,1.531,1.531,0,1,0,.2,2.293,1.5,1.5,0,0,0,.8,2.874Z" transform="translate(9.973 2.664)"/><path class="g" d="M3.6,4.009A2.555,2.555,0,0,1,4.776,2.9,1.531,1.531,0,1,0,2.765.762a1.5,1.5,0,0,0-.209.807,2.854,2.854,0,0,1-.413,1.684C1.641,4.027.892,5.128,0,6.3A13.815,13.815,0,0,1,2,7.454C2.582,6.042,3.174,4.83,3.6,4.009Z" transform="translate(27.314 2.665)"/><circle class="g" cx="2.296" cy="2.296" r="2.296" transform="translate(16.858 14.536)"/><path class="g" d="M7.724,2.7c-.031-.383-.049-.765-.049-1.154S7.692.777,7.724.4C6.21.594,4.866.687,3.945.729A2.56,2.56,0,0,1,2.4.269,1.531,1.531,0,0,0,.383,2.543a1.571,1.571,0,0,0,1.972.313,2.872,2.872,0,0,1,1.665-.484C4.938,2.416,6.264,2.513,7.724,2.7Z" transform="translate(0 19.876)"/><circle class="g" cx="0.765" cy="0.765" r="0.765" transform="translate(26.808 18.363)"/><path class="g" d="M7.342.529A1.572,1.572,0,0,0,5.37.216,2.84,2.84,0,0,1,3.705.7C2.787.652,1.46.556,0,.366Q.05.939.05,1.52c0,.387-.018.772-.049,1.153,1.614-.21,3.018-.3,3.779-.334A2.576,2.576,0,0,1,5.327,2.8,1.531,1.531,0,0,0,7.342.529Z" transform="translate(35.179 19.904)"/><path class="g" d="M36.763,30.046a1.463,1.463,0,0,0-.826-.2,2.761,2.761,0,0,1-1.654-.409c-1.212-.784-2.36-1.6-3.409-2.422a1.538,1.538,0,0,1-.5-1.7,12.282,12.282,0,0,0,0-7.775,1.538,1.538,0,0,1,.5-1.7c1.366-1.072,2.633-1.926,3.455-2.455a2.575,2.575,0,0,1,1.581-.375,1.571,1.571,0,0,0,1.1-.383,1.531,1.531,0,1,0-2.364-1.871,2.846,2.846,0,0,1-1.187,1.241c-.791.4-2.7,1.245-3.776,1.711a1.535,1.535,0,0,1-1.76-.4,12.206,12.206,0,0,0-6.7-3.872A1.531,1.531,0,0,1,19.99,8.107c-.135-1.189-.367-3.315-.407-4.2a2.544,2.544,0,0,1,.459-1.531,1.531,1.531,0,1,0-2.807-.851,1.5,1.5,0,0,0,.23.805,2.8,2.8,0,0,1,.481,1.656c-.045.879-.274,2.959-.406,4.121A1.531,1.531,0,0,1,16.31,9.43a12.216,12.216,0,0,0-6.7,3.874,1.531,1.531,0,0,1-1.757.4c-1.093-.475-3.045-1.333-3.835-1.744A2.559,2.559,0,0,1,2.9,10.786,1.534,1.534,0,1,0,.771,12.8a1.483,1.483,0,0,0,.822.2,2.736,2.736,0,0,1,1.654.409c1.215.786,2.363,1.6,3.408,2.421a1.538,1.538,0,0,1,.5,1.7,12.282,12.282,0,0,0,0,7.773,1.538,1.538,0,0,1-.5,1.7C5.286,28.085,4.02,28.941,3.2,29.469a2.592,2.592,0,0,1-1.578.375,1.564,1.564,0,0,0-1.1.383A1.531,1.531,0,0,0,2.293,32.7a1.507,1.507,0,0,0,.589-.6A2.846,2.846,0,0,1,4.07,30.856c.791-.4,2.7-1.245,3.776-1.711a1.522,1.522,0,0,1,.6-.126,1.548,1.548,0,0,1,1.158.526,12.206,12.206,0,0,0,6.7,3.873,1.531,1.531,0,0,1,1.231,1.325c.135,1.184.366,3.3.407,4.2a2.566,2.566,0,0,1-.459,1.537,1.531,1.531,0,1,0,2.807.85,1.5,1.5,0,0,0-.23-.807,2.784,2.784,0,0,1-.481-1.652c.058-1.125.188-2.852.473-4.7a.772.772,0,0,1,.64-.657,12.16,12.16,0,0,0,7.225-3.966,1.531,1.531,0,0,1,1.76-.4c1.1.476,3.052,1.336,3.834,1.744a2.553,2.553,0,0,1,1.108,1.175,1.535,1.535,0,1,0,2.137-2.019ZM10.346,25.251a2.3,2.3,0,1,1,2.3-2.3A2.3,2.3,0,0,1,10.346,25.251Zm2.3-8.419a3.827,3.827,0,1,1,3.827,3.827A3.827,3.827,0,0,1,12.642,16.832Zm6.888,14.542a4.592,4.592,0,1,1,4.592-4.592A4.592,4.592,0,0,1,19.531,31.374Zm5.358-9.95a2.3,2.3,0,1,1,2.3-2.3A2.3,2.3,0,0,1,24.889,21.424Z" transform="translate(2.686)"/><path class="g" d="M3.062,0A3.062,3.062,0,1,0,6.123,3.062,3.062,3.062,0,0,0,3.062,0Z" transform="translate(19.155 23.721)"/></g></g><circle class="g" cx="11.492" cy="11.492" r="11.492" transform="translate(14.581 15.215)"/></g><g transform="translate(134.97 148.561)"><g transform="matrix(0.966, -0.259, 0.259, 0.966, 0, 7.344)"><g transform="translate(0 0)"><path class="g" d="M.506,0a.506.506,0,1,0,.506.506A.506.506,0,0,0,.506,0Z" transform="translate(8.115 14.679)"/><path class="g" d="M3.185,3.031a1.892,1.892,0,0,1-.829-.794C2.08,1.695,1.7.9,1.321,0A9.063,9.063,0,0,1,0,.766C.655,1.621,1.17,2.4,1.442,2.822a1.689,1.689,0,0,1,.249,1.041A1.013,1.013,0,1,0,3.58,3.418.986.986,0,0,0,3.185,3.031Z" transform="translate(18.07 21.651)"/><path class="g" d="M1.333,2.279a1.687,1.687,0,0,1-.776.734A1.013,1.013,0,1,0,1.888,4.427a.992.992,0,0,0,.136-.534A1.888,1.888,0,0,1,2.3,2.779c.332-.512.827-1.24,1.418-2.015A9.14,9.14,0,0,1,2.392,0c-.385.934-.777,1.736-1.059,2.279Z" transform="translate(6.597 21.652)"/><path class="g" d="M.529,1.9a1.89,1.89,0,0,1,.828.793c.277.543.658,1.336,1.035,2.238a9.121,9.121,0,0,1,1.322-.766C3.1,3.364,2.6,2.624,2.272,2.11a1.688,1.688,0,0,1-.249-1.038,1.013,1.013,0,1,0-1.889.445A.992.992,0,0,0,.529,1.9Z" transform="translate(6.598 1.762)"/><path class="g" d="M2.382,2.652a1.69,1.69,0,0,1,.778-.734A1.013,1.013,0,1,0,1.829.5a.992.992,0,0,0-.138.534,1.888,1.888,0,0,1-.273,1.114C1.086,2.664.59,3.393,0,4.167a9.139,9.139,0,0,1,1.323.764C1.708,4,2.1,3.2,2.382,2.652Z" transform="translate(18.069 1.763)"/><circle class="g" cx="1.519" cy="1.519" r="1.519" transform="translate(11.152 9.616)"/><path class="g" d="M5.11,1.788c-.021-.253-.032-.506-.032-.764s.011-.51.032-.763c-1,.131-1.89.193-2.5.22a1.693,1.693,0,0,1-1.023-.3,1.013,1.013,0,0,0-1.333,1.5,1.039,1.039,0,0,0,1.3.207,1.9,1.9,0,0,1,1.1-.321C3.267,1.6,4.144,1.662,5.11,1.788Z" transform="translate(0 13.149)"/><circle class="g" cx="0.506" cy="0.506" r="0.506" transform="translate(17.734 12.148)"/><path class="g" d="M4.857.35a1.04,1.04,0,0,0-1.3-.207,1.878,1.878,0,0,1-1.1.321C1.844.432.966.368,0,.242q.033.379.033.764c0,.256-.012.51-.032.763,1.068-.139,2-.2,2.5-.221a1.7,1.7,0,0,1,1.023.3A1.013,1.013,0,0,0,4.857.35Z" transform="translate(23.272 13.167)"/><path class="g" d="M24.32,19.876a.968.968,0,0,0-.546-.134,1.826,1.826,0,0,1-1.094-.27c-.8-.518-1.561-1.057-2.255-1.6a1.018,1.018,0,0,1-.328-1.125,8.125,8.125,0,0,0,0-5.143,1.017,1.017,0,0,1,.328-1.127c.9-.709,1.742-1.274,2.286-1.624A1.7,1.7,0,0,1,23.755,8.6a1.039,1.039,0,0,0,.729-.253,1.013,1.013,0,1,0-1.564-1.237,1.883,1.883,0,0,1-.785.821c-.523.265-1.789.823-2.5,1.132A1.015,1.015,0,0,1,18.472,8.8,8.074,8.074,0,0,0,14.04,6.24a1.013,1.013,0,0,1-.816-.877c-.089-.786-.243-2.193-.269-2.779a1.683,1.683,0,0,1,.3-1.013A1.013,1.013,0,1,0,11.4,1.008a.99.99,0,0,0,.152.533,1.853,1.853,0,0,1,.318,1.1c-.03.581-.181,1.957-.269,2.726a1.013,1.013,0,0,1-.813.876A8.081,8.081,0,0,0,6.355,8.8a1.013,1.013,0,0,1-1.162.266c-.723-.314-2.014-.882-2.537-1.154a1.693,1.693,0,0,1-.735-.778A1.015,1.015,0,1,0,.51,8.471a.981.981,0,0,0,.544.133,1.81,1.81,0,0,1,1.094.27c.8.52,1.563,1.059,2.255,1.6A1.018,1.018,0,0,1,4.73,11.6a8.125,8.125,0,0,0,0,5.142A1.017,1.017,0,0,1,4.4,17.87c-.905.709-1.743,1.275-2.286,1.624a1.714,1.714,0,0,1-1.044.248A1.034,1.034,0,0,0,.343,20a1.013,1.013,0,0,0,1.174,1.637,1,1,0,0,0,.39-.4,1.883,1.883,0,0,1,.786-.821c.523-.265,1.789-.823,2.5-1.132a1.007,1.007,0,0,1,.4-.083,1.024,1.024,0,0,1,.766.348,8.075,8.075,0,0,0,4.433,2.562,1.013,1.013,0,0,1,.814.876c.089.783.242,2.186.269,2.776a1.7,1.7,0,0,1-.3,1.017,1.013,1.013,0,1,0,1.857.562.989.989,0,0,0-.152-.534,1.842,1.842,0,0,1-.318-1.093c.038-.744.124-1.887.313-3.107a.51.51,0,0,1,.423-.435,8.044,8.044,0,0,0,4.78-2.624,1.013,1.013,0,0,1,1.165-.266c.726.315,2.019.884,2.536,1.154a1.689,1.689,0,0,1,.733.777,1.016,1.016,0,1,0,1.414-1.336ZM6.844,16.7a1.519,1.519,0,1,1,1.519-1.519A1.519,1.519,0,0,1,6.844,16.7Zm1.519-5.57a2.532,2.532,0,1,1,2.532,2.532A2.532,2.532,0,0,1,8.363,11.135Zm4.557,9.62a3.038,3.038,0,1,1,3.038-3.038A3.038,3.038,0,0,1,12.92,20.755Zm3.544-6.582a1.519,1.519,0,1,1,1.519-1.519A1.519,1.519,0,0,1,16.464,14.173Z" transform="translate(1.777 0)"/><path class="g" d="M2.025,0A2.025,2.025,0,1,0,4.051,2.025,2.025,2.025,0,0,0,2.025,0Z" transform="translate(12.672 15.692)"/></g></g><circle class="g" cx="7.662" cy="7.662" r="7.662" transform="translate(9.792 9.921)"/></g></g></svg>